<?xml version="1.0" standalone="no"?>
<!DOCTYPE svg PUBLIC "-//W3C//DTD SVG 1.1//EN" "http://www.w3.org/Graphics/SVG/1.1/DTD/svg11.dtd" >
<svg xmlns="http://www.w3.org/2000/svg" xmlns:xlink="http://www.w3.org/1999/xlink" version="1.1">
<metadata></metadata>
<defs>
<font id="class-357regular" horiz-adv-x="1044" >
<font-face units-per-em="2048" ascent="1638" descent="-410" />
<missing-glyph horiz-adv-x="393" />
<glyph horiz-adv-x="0" />
<glyph horiz-adv-x="682" />
<glyph unicode=" "  horiz-adv-x="393" />
<glyph unicode="&#x09;" horiz-adv-x="393" />
<glyph unicode="&#xa0;" horiz-adv-x="393" />
<glyph unicode="!" horiz-adv-x="561" d="M41 1608q0 12 9 21t22 9h417q12 0 21.5 -9t9.5 -21l-41 -1096q0 -12 -9 -21.5t-21 -9.5h-336q-12 0 -21.5 9.5t-9.5 21.5zM76 195q0 92 56 148t149 56q92 0 148 -56t56 -148t-56 -148.5t-148 -56.5q-93 0 -149 56t-56 149z" />
<glyph unicode="#" horiz-adv-x="1388" d="M41 385v266q0 12 9 21.5t22 9.5h127l39 219h-78q-12 0 -21.5 9.5t-9.5 21.5v266q0 12 9 21.5t22 9.5h137l68 366q2 18 19 30.5t38 12.5h319q16 0 25.5 -12t7.5 -31l-67 -366h122l68 366q2 18 19.5 30.5t37.5 12.5h320q16 0 25.5 -12t7.5 -31l-68 -366h78q12 0 21.5 -9.5 t9.5 -21.5v-266q0 -12 -9.5 -21.5t-21.5 -9.5h-137l-39 -219h88q12 0 21.5 -9t9.5 -22v-266q0 -12 -9.5 -21.5t-21.5 -9.5h-148l-57 -311q-2 -18 -19.5 -30.5t-37.5 -12.5h-320q-16 0 -25.5 12.5t-7.5 30.5l58 311h-123l-57 -311q-2 -18 -19.5 -30.5t-38.5 -12.5h-319 q-16 0 -25.5 12.5t-7.5 30.5l57 311h-67q-12 0 -21.5 9.5t-9.5 21.5zM608 682h123l39 219h-123z" />
<glyph unicode="$" d="M41 326v118q0 16 12.5 28.5t28.5 12.5h358q16 0 28.5 -12t12.5 -29v-163q0 -43 9.5 -58.5t31.5 -15.5q23 0 32 15.5t9 58.5v45q0 96 -55 168.5t-168 175.5q-96 88 -155.5 154.5t-101.5 160.5t-42 215t69.5 202t196.5 114v184q0 12 9.5 21.5t21.5 9.5h369q12 0 21 -9.5 t9 -21.5v-184q127 -33 197 -114t70 -202v-119q0 -16 -12.5 -28.5t-28.5 -12.5h-359q-16 0 -28.5 12.5t-12.5 28.5v164q0 43 -9 58.5t-32 15.5t-32 -15.5t-9 -58.5v-45q0 -96 55.5 -169t168.5 -175q96 -88 155.5 -154.5t101.5 -161t42 -214.5q0 -121 -70 -202t-197 -114v-184 q0 -12 -9 -21.5t-21 -9.5h-369q-12 0 -21.5 9.5t-9.5 21.5v184q-127 33 -196.5 114t-69.5 202z" />
<glyph unicode="%" horiz-adv-x="2308" d="M41 1077v162q0 145 107.5 226t300.5 81h86q193 0 300 -81t107 -226v-162q0 -145 -107.5 -226t-299.5 -81h-86q-193 0 -300.5 81t-107.5 226zM451 1036q0 -41 8 -54t33 -13t32.5 13t7.5 54v244q0 41 -8 54.5t-32 13.5q-25 0 -33 -13.5t-8 -54.5v-244zM455 31l893 1474 q4 6 8 15.5t8 12.5t12 3h383q19 0 31 -8t2 -23l-891 -1474q-4 -6 -9 -14.5t-10 -12.5t-14 -4h-381q-16 0 -28.5 9t-3.5 22zM1305 297v162q0 145 107.5 226t299.5 81h86q193 0 300.5 -81t107.5 -226v-162q0 -145 -107.5 -226t-300.5 -81h-86q-193 0 -300 81t-107 226z M1714 256q0 -41 8.5 -54.5t32.5 -13.5q25 0 33 13.5t8 54.5v244q0 41 -8 54t-33 13t-33 -13t-8 -54v-244z" />
<glyph unicode="&#x26;" horiz-adv-x="1105" d="M41 324v211q0 78 38 132t138 95q-100 41 -138 95t-38 132v221q0 158 117.5 247t320.5 89h86q203 0 321 -89t118 -247v-104q0 -12 -9.5 -21.5t-21.5 -9.5h-379q-12 0 -21.5 9.5t-9.5 21.5v149q0 43 -9 58.5t-32 15.5t-32 -15.5t-9 -58.5v-311q0 -43 9.5 -58.5t31.5 -15.5 h41v93q0 12 9.5 21t21.5 9h379q12 0 21.5 -9t9.5 -21v-93h30q13 0 22 -9t9 -21v-156q0 -12 -9 -21.5t-22 -9.5h-30v-327q0 -158 -118 -247t-321 -89h-86q-203 0 -319.5 89t-118.5 245zM481 281q0 -43 9.5 -58.5t31.5 -15.5q23 0 32 15.5t9 58.5v372h-41q-23 0 -32 -15 t-9 -58v-299z" />
<glyph unicode="(" horiz-adv-x="638" d="M51 741q0 242 76 482.5t223 457.5q13 17 33 11l127 -43q10 -4 15 -15.5t3 -23.5q-70 -254 -103.5 -464t-33.5 -405q0 -193 34 -386t103 -412l2 -9q0 -23 -18 -28l-129 -60q-8 -4 -14 -4q-10 0 -21 11q-145 193 -221 420t-76 468z" />
<glyph unicode=")" horiz-adv-x="638" d="M158 1618q0 25 20 31l127 43q4 2 10 2q14 0 23 -13q147 -217 223 -457.5t76 -482.5t-76 -469t-221 -419q-6 -8 -15.5 -9.5t-19.5 2.5l-129 60q-10 4 -15 15t-1 22q70 215 103.5 409.5t33.5 388.5q0 197 -34 408t-103 461z" />
<glyph unicode="*" horiz-adv-x="1228" d="M100 1249q0 18 17 29l92 53l-92 53q-10 6 -14.5 19.5t1.5 23.5l68 115q6 10 18.5 14.5t22.5 -2.5l94 -55v109q0 12 9.5 21t21.5 9h133q12 0 21.5 -9t9.5 -21v-109l94 55q8 4 14 5q16 0 27 -17l68 -115q4 -8 4 -14q0 -18 -17 -29l-92 -53l92 -53q10 -6 14.5 -19.5 t-1.5 -23.5l-68 -115q-6 -10 -18.5 -14t-22.5 2l-94 55v-108q0 -12 -9.5 -21.5t-21.5 -9.5h-133q-12 0 -21.5 9t-9.5 22v108l-94 -55q-8 -4 -14 -4q-16 0 -27 16l-68 115q-4 8 -4 14z" />
<glyph unicode="+" horiz-adv-x="1146" d="M102 532v246q0 12 9.5 21.5t21.5 9.5h256v266q0 12 9.5 21.5t21.5 9.5h307q12 0 21.5 -9.5t9.5 -21.5v-266h256q12 0 21 -9t9 -22v-246q0 -12 -9 -21t-21 -9h-256v-266q0 -12 -9.5 -21.5t-21.5 -9.5h-307q-12 0 -21.5 9t-9.5 22v266h-256q-12 0 -21.5 9t-9.5 21z" />
<glyph unicode="," horiz-adv-x="491" d="M41 205q0 96 54.5 150.5t150.5 54.5q102 0 153.5 -71t51.5 -237q0 -217 -70 -322.5t-231 -105.5h-17q-16 0 -28.5 12.5t-12.5 28.5v86q0 16 12.5 28.5t28.5 12.5h17q61 0 88.5 35t27.5 123h-20q-96 0 -150.5 54.5t-54.5 150.5z" />
<glyph unicode="-" horiz-adv-x="655" d="M41 580v266q0 12 9 21.5t22 9.5h512q12 0 21 -9.5t9 -21.5v-266q0 -12 -9 -21.5t-21 -9.5h-512q-12 0 -21.5 9t-9.5 22z" />
<glyph unicode="." horiz-adv-x="491" d="M41 195q0 92 56.5 148t148.5 56t148.5 -56t56.5 -148t-56.5 -148.5t-148.5 -56.5t-148.5 56t-56.5 149z" />
<glyph unicode="/" horiz-adv-x="712" d="M41 -59l283 1552q2 18 19 30.5t38 12.5h319q16 0 25.5 -12.5t7.5 -30.5l-282 -1552q-2 -18 -19.5 -30.5t-38.5 -12.5h-319q-16 0 -25.5 12t-7.5 31z" />
<glyph unicode="0" d="M41 324v886q0 158 117.5 247t320.5 89h86q203 0 321 -89t118 -247v-886q-2 -156 -119 -245t-320 -89h-86q-203 0 -319.5 89t-118.5 245zM481 281q0 -43 9.5 -58.5t31.5 -15.5q23 0 32 15.5t9 58.5v974q0 43 -9 58.5t-32 15.5t-32 -15.5t-9 -58.5v-974z" />
<glyph unicode="1" horiz-adv-x="522" d="M-41 1331v164q0 12 9 21.5t22 9.5l461 20q12 0 21 -9t9 -21v-1485q0 -12 -9 -21.5t-21 -9.5h-379q-12 0 -21.5 9t-9.5 22v1269h-51q-12 0 -21.5 9.5t-9.5 21.5z" />
<glyph unicode="2" d="M41 31v205q0 121 42 215t101.5 160.5t155.5 154.5q113 102 168 175t55 169v145q0 43 -9 58.5t-32 15.5t-32 -15.5t-9 -58.5v-190q0 -12 -9 -21.5t-21 -9.5h-379q-12 0 -21.5 9.5t-9.5 21.5v145q0 158 117.5 247t320.5 89h86q203 0 321 -89t118 -247v-100q0 -121 -42 -215 t-101.5 -160.5t-155.5 -154.5q-92 -84 -143.5 -142.5t-69.5 -130.5h409q12 0 21.5 -9t9.5 -22v-245q0 -12 -9.5 -21.5t-21.5 -9.5h-829q-12 0 -21.5 9t-9.5 22z" />
<glyph unicode="3" d="M41 326v104q0 12 9 21.5t22 9.5h379q12 0 21 -9.5t9 -21.5v-149q0 -43 9.5 -58.5t31.5 -15.5q23 0 32 15.5t9 58.5v299q0 43 -9 58t-32 15h-123q-12 0 -21 9.5t-9 21.5v156q0 12 9 21t21 9h123q23 0 32 15.5t9 58.5v311q0 43 -9 58.5t-32 15.5t-32 -15.5t-9 -58.5v-149 q0 -12 -9 -21.5t-21 -9.5h-379q-12 0 -21.5 9.5t-9.5 21.5v104q0 158 117.5 247t320.5 89h86q203 0 321 -89t118 -247v-221q0 -78 -38 -132t-139 -95q100 -41 138.5 -95.5t38.5 -131.5v-211q-2 -156 -119 -245t-320 -89h-86q-203 0 -320.5 89t-117.5 247z" />
<glyph unicode="4" horiz-adv-x="940" d="M41 225v211q0 31 14 66l391 1034h422q12 0 21.5 -9t9.5 -22v-1474q0 -13 -9 -22t-22 -9h-368q-12 0 -21.5 9t-9.5 22v164h-397q-12 0 -21.5 9t-9.5 21zM313 549q-2 -8 1 -12.5t10 -4.5h145v455z" />
<glyph unicode="5" d="M41 326v178q0 12 9 21.5t22 9.5h379q12 0 21 -9.5t9 -21.5v-223q0 -43 9.5 -58.5t31.5 -15.5q23 0 32 15.5t9 58.5v524q0 45 -8 59.5t-33 14.5t-33 -14.5t-8 -59.5v-96q0 -12 -9 -21.5t-21 -9.5h-379q-12 0 -21.5 9t-9.5 22v827h932q12 0 21.5 -9t9.5 -22v-245 q0 -12 -9.5 -21.5t-21.5 -9.5h-494v-142q51 10 94 11h91q152 0 246 -93.5t94 -244.5v-436q-2 -156 -119 -245t-320 -89h-86q-203 0 -320.5 89t-117.5 247z" />
<glyph unicode="6" d="M41 326v884q0 158 117.5 247t320.5 89h86q203 0 321 -89t118 -247v-55q0 -12 -9.5 -21.5t-21.5 -9.5h-379q-12 0 -21.5 9.5t-9.5 21.5v100q0 43 -9 58.5t-32 15.5t-32 -15.5t-9 -58.5v-194h84q203 0 321 -89t118 -247v-401q-2 -156 -119 -245t-320 -89h-86 q-203 0 -320.5 89t-117.5 247zM481 281q0 -43 9.5 -58.5t31.5 -15.5q23 0 32 15.5t9 58.5v489q0 43 -9 58.5t-32 15.5h-41v-563z" />
<glyph unicode="7" d="M41 1260v245q0 12 9 21.5t22 9.5h901q12 0 21.5 -9t9.5 -22v-180q0 -23 -7 -47l-395 -1258q-6 -20 -27 -20h-350q-18 0 -28.5 14.5t-3.5 32.5l428 1165q2 6 -1.5 11.5t-9.5 5.5h-538q-12 0 -21.5 9t-9.5 22z" />
<glyph unicode="8" d="M41 324v211q0 78 38 132t138 95q-100 41 -138 95t-38 132v221q0 158 117.5 247t320.5 89h86q203 0 321 -89t118 -247v-221q0 -78 -38 -132t-139 -95q100 -41 138.5 -95.5t38.5 -131.5v-211q-2 -156 -119 -245t-320 -89h-86q-203 0 -319.5 89t-118.5 245zM481 281 q0 -43 9.5 -58.5t31.5 -15.5q23 0 32 15.5t9 58.5v299q0 43 -9 58t-32 15t-32 -15t-9 -58v-299zM481 944q0 -43 9.5 -58.5t31.5 -15.5q23 0 32 15.5t9 58.5v311q0 43 -9 58.5t-32 15.5t-32 -15.5t-9 -58.5v-311z" />
<glyph unicode="9" d="M41 684v528q2 156 118.5 245t319.5 89h86q203 0 321 -89t118 -247v-884q0 -158 -118 -247t-321 -89h-90q-12 0 -21.5 9t-9.5 21l-2 156q0 12 9.5 21.5t21.5 9.5h49q23 0 32 15.5t9 58.5v75q-47 -10 -92 -10h-90q-152 0 -246 93t-94 245zM481 639q0 -45 8.5 -59.5 t32.5 -14.5q25 0 33 14.5t8 59.5v616q0 43 -9 58.5t-32 15.5t-32 -15.5t-9 -58.5v-616z" />
<glyph unicode=":" horiz-adv-x="491" d="M41 295q0 92 56.5 148t148.5 56t148.5 -56t56.5 -148t-56.5 -148.5t-148.5 -56.5t-148.5 56t-56.5 149zM41 910q0 92 56.5 148t148.5 56t148.5 -56t56.5 -148t-56.5 -148.5t-148.5 -56.5t-148.5 56t-56.5 149z" />
<glyph unicode=";" horiz-adv-x="491" d="M41 305q0 96 54.5 150.5t150.5 54.5q102 0 153.5 -71t51.5 -237q0 -217 -70 -322.5t-231 -105.5h-17q-16 0 -28.5 12.5t-12.5 28.5v86q0 16 12.5 28.5t28.5 12.5h17q61 0 88.5 35t27.5 123h-20q-96 0 -150.5 54.5t-54.5 150.5zM41 910q0 92 56.5 148t148.5 56t148.5 -56 t56.5 -148t-56.5 -148.5t-148.5 -56.5t-148.5 56t-56.5 149z" />
<glyph unicode="&#x3c;" horiz-adv-x="763" d="M41 614l227 375q21 35 54 35h364q20 0 31.5 -14.5t1.5 -30.5l-219 -365l215 -360q6 -8 6 -18q0 -14 -11.5 -22.5t-27.5 -8.5h-360q-33 0 -54 35z" />
<glyph unicode="=" horiz-adv-x="1007" d="M41 827v267q0 12 9 21t22 9h860q12 0 21.5 -9t9.5 -21v-267q0 -12 -9.5 -21t-21.5 -9h-860q-12 0 -21.5 9t-9.5 21zM45 348v266q0 12 9 21.5t22 9.5h860q12 0 21.5 -9t9.5 -22v-266q0 -12 -9.5 -21.5t-21.5 -9.5h-860q-12 0 -21.5 9.5t-9.5 21.5z" />
<glyph unicode="&#x3e;" horiz-adv-x="763" d="M41 993q0 12 11 21.5t26 9.5h364q33 0 54 -35l227 -375l-227 -374q-20 -35 -54 -35h-360q-16 0 -27.5 8t-11.5 23q0 10 6 18l215 360l-219 365q-4 4 -4 14z" />
<glyph unicode="?" horiz-adv-x="983" d="M41 1047v198q4 141 110.5 221t297.5 80h86q192 0 299.5 -81t107.5 -226v-106q0 -102 -32.5 -172t-79 -111t-117.5 -88q-80 -51 -118 -93t-38 -110v-53q0 -31 -51 -31h-144q-12 0 -21 9.5t-9 21.5v53q0 129 29.5 202t84.5 150q45 61 65.5 105.5t20.5 116.5v147 q0 41 -8 54.5t-32 13.5q-25 0 -33 -13.5t-8 -54.5v-233q0 -12 -9.5 -21.5t-21.5 -9.5h-348q-12 0 -21.5 9t-9.5 22zM254 195q0 92 56.5 148t148.5 56t148.5 -56t56.5 -148t-56.5 -148.5t-148.5 -56.5t-148.5 56t-56.5 149z" />
<glyph unicode="@" horiz-adv-x="1964" d="M41 307v819q0 145 107.5 226.5t300.5 81.5h1067q193 0 300 -81t107 -227v-538q0 -145 -107.5 -226t-299.5 -81h-86q-188 0 -295 77q-84 -78 -213 -77h-82q-139 0 -224.5 85t-85.5 222v258q0 145 107.5 226t300.5 81h86q193 0 300.5 -81t107.5 -226v-299q0 -41 8 -54.5 t33 -13.5t32.5 13.5t7.5 54.5v620q0 41 -8 54.5t-32 13.5h-981q-25 0 -33 -13.5t-8 -54.5v-901q0 -41 8 -54t33 -13h1339q12 0 21.5 -9.5t9.5 -21.5v-137q0 -12 -9.5 -21.5t-21.5 -9.5h-1382q-193 0 -300.5 81t-107.5 226zM940 547q0 -41 8 -54.5t33 -13.5t33 13.5t8 54.5 v340q0 41 -8 54t-33 13t-33 -13t-8 -54v-340z" />
<glyph unicode="A" d="M41 31v1179q0 158 117.5 247t320.5 89h86q203 0 321 -89t118 -247v-1179q0 -12 -9.5 -21.5t-21.5 -9.5h-379q-12 0 -21.5 9t-9.5 22v368h-82v-368q0 -12 -9 -21.5t-21 -9.5h-379q-12 0 -21.5 9t-9.5 22zM481 616h82v639q0 43 -9 58.5t-32 15.5t-32 -15.5t-9 -58.5v-639z " />
<glyph unicode="B" d="M41 31v1474q0 12 9 21.5t22 9.5h493q203 0 321 -89t118 -247v-205q0 -77 -38 -131.5t-139 -95.5q100 -41 138.5 -95.5t38.5 -131.5v-205q0 -158 -118 -247t-321 -89h-493q-12 0 -21.5 9t-9.5 22zM481 217h41q23 0 32 15.5t9 58.5v295q0 43 -9 58t-32 15h-41v-442z M481 877h41q23 0 32 15t9 58v295q0 43 -9 58.5t-32 15.5h-41v-442z" />
<glyph unicode="C" d="M41 326v884q0 158 117.5 247t320.5 89h86q203 0 321 -89t118 -247v-370q0 -12 -9.5 -21.5t-21.5 -9.5h-379q-12 0 -21.5 9t-9.5 22v415q0 43 -9 58.5t-32 15.5t-32 -15.5t-9 -58.5v-974q0 -43 9.5 -58.5t31.5 -15.5q23 0 32 15.5t9 58.5v415q0 12 9.5 21.5t21.5 9.5h379 q12 0 21.5 -9t9.5 -22v-370q0 -158 -118 -247t-321 -89h-86q-203 0 -320.5 89t-117.5 247z" />
<glyph unicode="D" d="M41 31v1474q0 12 9 21.5t22 9.5h493q203 0 321 -89t118 -247v-864q0 -158 -118 -247t-321 -89h-493q-12 0 -21.5 9t-9.5 22zM481 217h41q23 0 32 15.5t9 58.5v954q0 43 -9 58.5t-32 15.5h-41v-1102z" />
<glyph unicode="E" horiz-adv-x="972" d="M41 31v1474q0 12 9 21.5t22 9.5h829q12 0 21.5 -9t9.5 -22v-245q0 -12 -9.5 -21.5t-21.5 -9.5h-420v-320h318q12 0 21 -9t9 -21v-217q0 -12 -9 -21.5t-21 -9.5h-318v-324h420q12 0 21.5 -9t9.5 -22v-245q0 -12 -9.5 -21.5t-21.5 -9.5h-829q-12 0 -21.5 9t-9.5 22z" />
<glyph unicode="F" horiz-adv-x="952" d="M41 31v1474q0 12 9 21.5t22 9.5h829q12 0 21.5 -9t9.5 -22v-245q0 -12 -9.5 -21.5t-21.5 -9.5h-420v-402h318q12 0 21 -9t9 -21v-217q0 -12 -9 -21.5t-21 -9.5h-318v-549h-409q-12 0 -21.5 9t-9.5 22z" />
<glyph unicode="G" d="M41 326v884q0 158 117.5 247t320.5 89h86q203 0 321 -89t118 -247v-370q0 -12 -9.5 -21.5t-21.5 -9.5h-379q-12 0 -21.5 9t-9.5 22v415q0 43 -9 58.5t-32 15.5t-32 -15.5t-9 -58.5v-974q0 -45 8.5 -59.5t32.5 -14.5q25 0 33 14.5t8 59.5v415q0 12 9.5 21.5t21.5 9.5h379 q12 0 21.5 -9t9.5 -22v-655q0 -16 -12.5 -28.5t-28.5 -12.5h-136q-29 0 -45 23l-53 73q-45 -53 -110.5 -80.5t-147.5 -27.5h-90q-152 0 -246 93t-94 245z" />
<glyph unicode="H" d="M41 31v1474q0 12 9 21.5t22 9.5h379q12 0 21 -9t9 -22v-567h82v567q0 12 9.5 21.5t21.5 9.5h379q12 0 21.5 -9t9.5 -22v-1474q0 -12 -9.5 -21.5t-21.5 -9.5h-379q-12 0 -21.5 9t-9.5 22v569h-82v-569q0 -12 -9 -21.5t-21 -9.5h-379q-12 0 -21.5 9t-9.5 22z" />
<glyph unicode="I" horiz-adv-x="522" d="M41 31v1474q0 13 9 22t22 9h379q12 0 21 -9t9 -22v-1474q0 -12 -9 -21.5t-21 -9.5h-379q-12 0 -21.5 9t-9.5 22z" />
<glyph unicode="J" d="M41 324v190q0 12 9 21.5t22 9.5h379q12 0 21 -9.5t9 -21.5v-233q0 -43 9.5 -58.5t31.5 -15.5q23 0 32 15.5t9 58.5v1224q0 12 9.5 21.5t21.5 9.5h379q12 0 21.5 -9t9.5 -22v-1181q-2 -156 -119 -245t-320 -89h-86q-203 0 -319.5 89t-118.5 245z" />
<glyph unicode="K" horiz-adv-x="1103" d="M41 31v1474q0 12 9 21.5t22 9.5h379q12 0 21 -9t9 -22v-581q0 -2 5.5 -3t5.5 1l81 567q2 20 19.5 33.5t40.5 13.5h395q19 0 28 -14.5t5 -30.5l-219 -690l215 -752q2 -4 2 -14q0 -16 -9.5 -25.5t-25.5 -9.5h-395q-20 0 -37 12.5t-19 32.5l-81 471q-2 6 -6.5 5t-4.5 -5 v-485q0 -12 -9 -21.5t-21 -9.5h-379q-12 0 -21.5 9t-9.5 22z" />
<glyph unicode="L" horiz-adv-x="876" d="M41 31v1474q0 12 9 21.5t22 9.5h379q12 0 21 -9t9 -22v-1198h324q12 0 21.5 -9t9.5 -22v-245q0 -12 -9.5 -21.5t-21.5 -9.5h-733q-12 0 -21.5 9t-9.5 22z" />
<glyph unicode="M" horiz-adv-x="1566" d="M41 31v1462q0 16 12.5 28.5t28.5 12.5h135q29 0 45 -23l53 -73q45 53 111 80.5t147 27.5h91q127 0 217 -67q89 67 211 67h4h90q151 0 245.5 -93t94.5 -245v-1177q0 -12 -9.5 -21.5t-21.5 -9.5h-379q-12 0 -21.5 9t-9.5 22v1222q0 45 -8 59.5t-33 14.5t-32.5 -14.5 t-7.5 -59.5v-1222q0 -12 -9.5 -21.5t-21.5 -9.5h-379q-12 0 -21.5 9t-9.5 22v1222q0 45 -8 59.5t-33 14.5t-33 -14.5t-8 -59.5v-1222q0 -12 -9 -21.5t-21 -9.5h-379q-12 0 -21.5 9t-9.5 22z" />
<glyph unicode="N" d="M41 31v1462q0 16 12.5 28.5t28.5 12.5h135q29 0 45 -23l53 -73q45 53 111 80.5t147 27.5h91q151 0 245.5 -93t94.5 -245v-1177q0 -12 -9.5 -21.5t-21.5 -9.5h-379q-12 0 -21.5 9t-9.5 22v1222q0 45 -8 59.5t-33 14.5t-33 -14.5t-8 -59.5v-1222q0 -12 -9 -21.5t-21 -9.5 h-379q-12 0 -21.5 9t-9.5 22z" />
<glyph unicode="O" d="M41 324v886q0 158 117.5 247t320.5 89h86q203 0 321 -89t118 -247v-886q-2 -156 -119 -245t-320 -89h-86q-203 0 -319.5 89t-118.5 245zM481 281q0 -43 9.5 -58.5t31.5 -15.5q23 0 32 15.5t9 58.5v974q0 43 -9 58.5t-32 15.5t-32 -15.5t-9 -58.5v-974z" />
<glyph unicode="P" d="M41 31v1474q0 12 9 21.5t22 9.5h493q203 0 321 -89t118 -247v-479q0 -158 -118 -247t-321 -89h-84v-385h-409q-12 0 -21.5 9t-9.5 22zM481 602h41q23 0 32 15.5t9 58.5v569q0 43 -9 58.5t-32 15.5h-41v-717z" />
<glyph unicode="Q" d="M41 324v886q0 158 117.5 247t320.5 89h86q203 0 321 -89t118 -247v-886q0 -156 -119 -246l116 -295q5 -12 5 -16q0 -14 -10.5 -23.5t-26.5 -9.5h-355q-43 0 -55 45l-53 211h-27q-203 0 -319.5 89t-118.5 245zM481 281q0 -43 9.5 -58.5t31.5 -15.5q23 0 32 15.5t9 58.5 v974q0 43 -9 58.5t-32 15.5t-32 -15.5t-9 -58.5v-974z" />
<glyph unicode="R" d="M41 31v1474q0 12 9 21.5t22 9.5h493q203 0 321 -89t118 -247v-336q0 -82 -34 -147.5t-96 -108.5l127 -559q2 -4 3 -12q0 -16 -9.5 -26.5t-25.5 -10.5h-355q-23 0 -39 12.5t-16 32.5l-41 483h-37v-497q0 -12 -9 -21.5t-21 -9.5h-379q-12 0 -21.5 9t-9.5 22zM481 745h41 q23 0 32 15.5t9 58.5v426q0 43 -9 58.5t-32 15.5h-41v-574z" />
<glyph unicode="S" d="M41 326v118q0 16 12.5 28.5t28.5 12.5h358q16 0 28.5 -12t12.5 -29v-163q0 -43 9.5 -58.5t31.5 -15.5q23 0 32 15.5t9 58.5v45q0 96 -55 168.5t-168 175.5q-96 88 -155.5 154.5t-101.5 160.5t-42 215q0 158 117.5 247t320.5 89h86q203 0 321 -89t118 -247v-119 q0 -16 -12.5 -28.5t-28.5 -12.5h-359q-16 0 -28.5 12.5t-12.5 28.5v164q0 43 -9 58.5t-32 15.5t-32 -15.5t-9 -58.5v-45q0 -96 55.5 -169t168.5 -175q96 -88 155.5 -154.5t101.5 -161t42 -214.5q0 -158 -118 -247t-321 -89h-86q-203 0 -320.5 89t-117.5 247z" />
<glyph unicode="T" horiz-adv-x="829" d="M41 1229v276q0 12 9 21.5t22 9.5h686q12 0 21 -9t9 -22v-276q0 -12 -9 -21.5t-21 -9.5h-123v-1167q0 -12 -9.5 -21.5t-21.5 -9.5h-379q-12 0 -21 9t-9 22v1167h-123q-12 0 -21.5 9.5t-9.5 21.5z" />
<glyph unicode="U" d="M41 324v1181q0 12 9 21.5t22 9.5h379q12 0 21 -9t9 -22v-1224q0 -45 8.5 -59.5t32.5 -14.5q25 0 33 14.5t8 59.5v1224q0 12 9.5 21.5t21.5 9.5h379q12 0 21.5 -9t9.5 -22v-1464q0 -16 -12.5 -28.5t-28.5 -12.5h-136q-29 0 -45 23l-53 73q-45 -53 -110.5 -80.5 t-147.5 -27.5h-90q-152 0 -246 93t-94 243z" />
<glyph unicode="V" d="M41 324v1192q0 12 9 21t22 9l379 -20q12 0 21 -9.5t9 -21.5v-1216q0 -43 9.5 -58.5t31.5 -15.5q23 0 32 15.5t9 58.5v1216q0 12 9.5 21.5t21.5 9.5l379 20q12 0 21.5 -9t9.5 -21v-1192q0 -158 -118 -247t-321 -89h-86q-203 0 -320.5 89t-117.5 247z" />
<glyph unicode="W" horiz-adv-x="1566" d="M41 338v1167q0 12 9 21.5t22 9.5h379q12 0 21 -9t9 -22v-1212q0 -45 8.5 -59.5t32.5 -14.5q25 0 33 14.5t8 59.5v1212q0 12 9.5 21.5t21.5 9.5h379q12 0 21.5 -9t9.5 -22v-1212q0 -45 8 -59.5t32 -14.5q25 0 33 14.5t8 59.5v1212q0 12 9.5 21.5t21.5 9.5h379 q12 0 21.5 -9t9.5 -22v-1167q0 -152 -94.5 -245t-245.5 -93h-131q-190 0 -271 166q-82 -166 -272 -166h-131q-152 0 -246 93t-94 245z" />
<glyph unicode="X" d="M41 31v510q0 78 38 132t138 95q-100 41 -138 95.5t-38 131.5v510q0 12 9 21.5t22 9.5h379q12 0 21 -9t9 -22v-555q0 -43 9.5 -58t31.5 -15q23 0 32 15t9 58v555q0 12 9.5 21.5t21.5 9.5h379q12 0 21.5 -9t9.5 -22v-510q0 -77 -38 -131.5t-139 -95.5q100 -41 138.5 -95.5 t38.5 -131.5v-510q0 -12 -9.5 -21.5t-21.5 -9.5h-379q-12 0 -21.5 9t-9.5 22v555q0 43 -9 58t-32 15t-32 -15t-9 -58v-555q0 -12 -9 -21.5t-21 -9.5h-379q-12 0 -21.5 9t-9.5 22z" />
<glyph unicode="Y" d="M41 774v731q0 12 9 21.5t22 9.5h379q12 0 21 -9t9 -22v-776q0 -43 9.5 -58.5t31.5 -15.5q23 0 32 15.5t9 58.5v776q0 12 9.5 21.5t21.5 9.5h379q12 0 21.5 -9t9.5 -22v-731q0 -119 -69 -199.5t-194 -115.5v-428q0 -12 -9 -21.5t-21 -9.5h-377q-12 0 -21.5 9t-9.5 22v428 q-125 35 -193.5 115.5t-68.5 199.5z" />
<glyph unicode="Z" horiz-adv-x="913" d="M41 31v211q0 31 14 65l391 875q2 8 -1 12t-9 4h-360q-14 0 -24.5 10.5t-10.5 24.5v270q0 12 10 22.5t25 10.5h766q12 0 21 -9t9 -22v-172q0 -27 -14 -63l-401 -916q-2 -8 1 -12t9 -4h371q14 0 24 -10.5t10 -24.5v-270q0 -12 -10 -22.5t-24 -10.5h-766q-12 0 -21.5 9 t-9.5 22z" />
<glyph unicode="[" horiz-adv-x="604" d="M41 -72v1680q0 12 9 21t22 9h460q12 0 21.5 -9t9.5 -21v-185q0 -12 -9 -21t-22 -9h-81v-1250h81q12 0 21.5 -9t9.5 -21v-185q0 -12 -9 -21t-22 -9h-460q-12 0 -21.5 9t-9.5 21z" />
<glyph unicode="\" horiz-adv-x="651" d="M-20 1493v8q0 16 9 25.5t23 9.5h320q20 0 37.5 -12.5t19.5 -30.5l283 -1552v-9q0 -16 -9.5 -25t-23.5 -9h-320q-20 0 -37.5 12t-19.5 31z" />
<glyph unicode="]" horiz-adv-x="604" d="M41 -72v185q0 12 9 21t22 9h82v1250h-82q-12 0 -21.5 9t-9.5 21v185q0 12 9 21t22 9h460q13 0 22 -9t9 -21v-1680q0 -12 -9 -21t-22 -9h-460q-12 0 -21.5 9t-9.5 21z" />
<glyph unicode="^" horiz-adv-x="815" d="M41 1409q0 14 10 25l275 262q27 27 69 26h23q43 0 69 -26l275 -262q12 -13 12 -25t-12 -23l-105 -92q-8 -8 -18 -8q-12 0 -23 10l-208 197l-211 -197q-10 -10 -23 -10q-10 0 -18 8l-105 90q-10 10 -10 25z" />
<glyph unicode="_" horiz-adv-x="1003" d="M41 -112q0 12 9 21.5t22 9.5h860q12 0 21.5 -9.5t9.5 -21.5v-266q0 -12 -9.5 -21.5t-21.5 -9.5h-860q-12 0 -21.5 9t-9.5 22v266z" />
<glyph unicode="`" horiz-adv-x="1228" d="M209 1518q0 20 10 47l14 37q23 57 80 57q33 0 66 -19l436 -237q8 -4 11 -16.5t-1 -20.5l-8 -20q-2 -8 -14.5 -13.5t-24.5 -3.5l-502 103q-31 6 -49 29.5t-18 56.5z" />
<glyph unicode="a" horiz-adv-x="983" d="M41 297v154q0 145 107.5 226t300.5 81h83v215q0 41 -8 54t-32 13q-25 0 -33 -13t-8 -54v-109q0 -16 -12.5 -28.5t-28.5 -12.5h-318q-16 0 -28.5 12.5t-12.5 28.5v68q0 143 106.5 225t291.5 82h86q192 0 299.5 -81t107.5 -226v-891q0 -16 -12 -28.5t-29 -12.5h-135 q-31 0 -45 23l-49 71q-41 -49 -102.5 -76.5t-137.5 -27.5h-82q-139 0 -224 85t-85 222zM451 256q0 -41 8 -54.5t33 -13.5t32.5 13.5t7.5 54.5v303h-40q-25 0 -33 -13.5t-8 -53.5v-236z" />
<glyph unicode="b" horiz-adv-x="983" d="M41 41v1567q0 12 9 21t22 9h348q12 0 21.5 -9t9.5 -21v-379h84q192 0 299.5 -81t107.5 -226v-625q0 -137 -85 -222t-224 -85h-82q-76 0 -137.5 27.5t-102.5 76.5l-49 -71q-14 -23 -45 -23h-135q-16 0 -28.5 12.5t-12.5 28.5zM451 256q0 -41 8 -54.5t33 -13.5t32.5 13.5 t7.5 54.5v707q0 41 -8 54t-32 13h-41v-774z" />
<glyph unicode="c" horiz-adv-x="983" d="M41 297v635q0 145 107.5 226t300.5 81h86q193 0 300 -81t107 -226v-252q0 -12 -9 -21.5t-22 -9.5h-348q-12 0 -21.5 9.5t-9.5 21.5v293q0 41 -8 54t-32 13q-25 0 -33 -13t-8 -54v-717q0 -41 8 -54.5t33 -13.5t32.5 13.5t7.5 54.5v281q0 12 9.5 21t21.5 9h348 q12 0 21.5 -9t9.5 -21v-240q0 -145 -107.5 -226t-299.5 -81h-86q-193 0 -300.5 81t-107.5 226z" />
<glyph unicode="d" horiz-adv-x="983" d="M41 297v625q0 145 107.5 226t300.5 81h83v379q0 12 9.5 21t21.5 9h348q13 0 22 -9t9 -21v-1567q0 -16 -12 -28.5t-29 -12.5h-135q-31 0 -45 23l-49 71q-41 -49 -102.5 -76.5t-137.5 -27.5h-82q-139 0 -224 85t-85 222zM451 256q0 -41 8 -54.5t33 -13.5t32.5 13.5 t7.5 54.5v774h-40q-25 0 -33 -13t-8 -54v-707z" />
<glyph unicode="e" horiz-adv-x="983" d="M41 297v635q0 145 107.5 226t300.5 81h86q193 0 300 -81t107 -226v-404q0 -12 -9 -21t-22 -9h-460v-242q0 -41 8 -54.5t33 -13.5t32.5 13.5t7.5 54.5v129q0 12 9.5 21.5t21.5 9.5h348q12 0 21.5 -9.5t9.5 -21.5v-88q0 -145 -107.5 -226t-299.5 -81h-86q-193 0 -300.5 81 t-107.5 226zM451 696h81v277q0 41 -8 54t-32 13q-25 0 -33 -13t-8 -54v-277z" />
<glyph unicode="f" horiz-adv-x="716" d="M41 948v250q0 12 9 21.5t22 9.5h71v102q0 145 107.5 226t300.5 81h94q12 0 21.5 -9t9.5 -21v-138q0 -12 -9.5 -21t-21.5 -9h-51q-25 0 -33 -13.5t-8 -54.5v-143h92q12 0 21.5 -9.5t9.5 -21.5v-250q0 -12 -9.5 -21t-21.5 -9h-92v-887q0 -12 -9 -21.5t-22 -9.5h-348 q-12 0 -21.5 9t-9.5 22v887h-71q-12 0 -21.5 9t-9.5 21z" />
<glyph unicode="g" horiz-adv-x="983" d="M41 307v625q0 137 85 222t224 85h82q76 0 137.5 -27.5t102.5 -76.5l49 71q14 23 45 23h135q17 0 29 -12.5t12 -28.5v-1290q0 -145 -107.5 -226.5t-299.5 -81.5h-95q-12 0 -21 9.5t-9 21.5v137q0 12 9 21.5t21 9.5h52q25 0 32.5 13.5t7.5 54.5v143h-83q-193 0 -300.5 81 t-107.5 226zM451 266q0 -41 8 -54t33 -13h40v774q0 41 -8 54t-32 13q-25 0 -33 -13t-8 -54v-707z" />
<glyph unicode="h" horiz-adv-x="983" d="M41 31v1577q0 12 9 21t22 9h348q12 0 21.5 -9t9.5 -21v-379h84q192 0 299.5 -81t107.5 -226v-891q0 -12 -9 -21.5t-22 -9.5h-348q-12 0 -21.5 9t-9.5 22v932q0 41 -8 54t-32 13h-41v-999q0 -12 -9.5 -21.5t-21.5 -9.5h-348q-12 0 -21.5 9t-9.5 22z" />
<glyph unicode="i" horiz-adv-x="491" d="M41 31v1167q0 12 9 21.5t22 9.5h348q12 0 21.5 -9.5t9.5 -21.5v-1167q0 -12 -9.5 -21.5t-21.5 -9.5h-348q-12 0 -21.5 9t-9.5 22zM41 1341v267q0 12 9 21t22 9h348q12 0 21.5 -9t9.5 -21v-267q0 -12 -9.5 -21t-21.5 -9h-348q-12 0 -21.5 9t-9.5 21z" />
<glyph unicode="j" horiz-adv-x="491" d="M-41 -242q0 12 9 21.5t22 9.5h10q25 0 33 13.5t8 54.5v1341q0 12 9 21.5t22 9.5h348q12 0 21.5 -9.5t9.5 -21.5v-1300q0 -145 -107.5 -226.5t-300.5 -81.5h-53q-12 0 -21.5 9.5t-9.5 21.5v137zM41 1341v267q0 12 9 21t22 9h348q12 0 21.5 -9t9.5 -21v-267q0 -12 -9.5 -21 t-21.5 -9h-348q-12 0 -21.5 9t-9.5 21z" />
<glyph unicode="k" horiz-adv-x="1032" d="M41 31v1577q0 12 9 21t22 9h348q12 0 21.5 -9t9.5 -21v-828q0 -2 5 -3t5 1l82 404q4 20 20.5 33.5t38.5 13.5h354q19 0 29 -14.5t4 -30.5l-198 -506l194 -629q2 -4 2 -14q0 -16 -9 -25.5t-26 -9.5h-354q-20 0 -35.5 12.5t-19.5 32.5l-82 328q-2 6 -6 5t-4 -5v-342 q0 -12 -9.5 -21.5t-21.5 -9.5h-348q-12 0 -21.5 9t-9.5 22z" />
<glyph unicode="l" horiz-adv-x="491" d="M41 31v1577q0 12 9 21t22 9h348q12 0 21.5 -9t9.5 -21v-1577q0 -12 -9.5 -21.5t-21.5 -9.5h-348q-12 0 -21.5 9t-9.5 22z" />
<glyph unicode="m" horiz-adv-x="1474" d="M41 31v1157q0 16 12.5 28.5t28.5 12.5h135q31 0 45 -23l49 -71q41 49 102.5 76.5t137.5 27.5h82q123 0 207 -68q80 68 202 68h82q140 0 225 -85t85 -222v-901q0 -12 -9.5 -21.5t-21.5 -9.5h-348q-12 0 -21.5 9t-9.5 22v942q0 41 -8 54t-33 13t-33 -13t-8 -54v-942 q0 -12 -9 -21.5t-22 -9.5h-348q-12 0 -21.5 9t-9.5 22v942q0 41 -8 54t-32 13q-25 0 -33 -13t-8 -54v-942q0 -12 -9.5 -21.5t-21.5 -9.5h-348q-12 0 -21.5 9t-9.5 22z" />
<glyph unicode="n" horiz-adv-x="983" d="M41 31v1157q0 16 12.5 28.5t28.5 12.5h135q31 0 45 -23l49 -71q41 49 102.5 76.5t137.5 27.5h82q139 0 224 -85t85 -222v-901q0 -12 -9 -21.5t-22 -9.5h-348q-12 0 -21.5 9t-9.5 22v942q0 41 -8 54t-32 13q-25 0 -33 -13t-8 -54v-942q0 -12 -9.5 -21.5t-21.5 -9.5h-348 q-12 0 -21.5 9t-9.5 22z" />
<glyph unicode="o" horiz-adv-x="983" d="M41 297v635q0 145 107.5 226t300.5 81h86q192 0 299.5 -81t107.5 -226v-635q0 -145 -107.5 -226t-299.5 -81h-86q-193 0 -300.5 81t-107.5 226zM451 256q0 -41 8 -54.5t33 -13.5t32.5 13.5t7.5 54.5v717q0 41 -8 54t-32 13q-25 0 -33 -13t-8 -54v-717z" />
<glyph unicode="p" horiz-adv-x="983" d="M41 -379v1567q0 16 12.5 28.5t28.5 12.5h135q31 0 45 -23l49 -71q41 49 102.5 76.5t137.5 27.5h82q139 0 224 -85t85 -222v-625q0 -145 -107.5 -226t-299.5 -81h-84v-379q0 -12 -9.5 -21.5t-21.5 -9.5h-348q-12 0 -21.5 9.5t-9.5 21.5zM451 199h41q25 0 32.5 13t7.5 54 v707q0 41 -8 54t-32 13q-25 0 -33 -13t-8 -54v-774z" />
<glyph unicode="q" horiz-adv-x="983" d="M41 307v625q0 137 85 222t224 85h82q76 0 137.5 -27.5t102.5 -76.5l49 71q14 23 45 23h135q17 0 29 -12.5t12 -28.5v-1567q0 -12 -9 -21.5t-22 -9.5h-348q-12 0 -21.5 9.5t-9.5 21.5v379h-83q-193 0 -300.5 81t-107.5 226zM451 266q0 -41 8 -54t33 -13h40v774q0 41 -8 54 t-32 13q-25 0 -33 -13t-8 -54v-707z" />
<glyph unicode="r" horiz-adv-x="983" d="M41 31v1157q0 16 12.5 28.5t28.5 12.5h135q31 0 45 -23l49 -71q41 49 102.5 76.5t137.5 27.5h82q139 0 224 -85t85 -222v-404q0 -12 -9 -21t-22 -9h-348q-12 0 -21.5 9t-9.5 21v445q0 41 -8 54t-32 13q-25 0 -33 -13t-8 -54v-942q0 -12 -9.5 -21.5t-21.5 -9.5h-348 q-12 0 -21.5 9t-9.5 22z" />
<glyph unicode="s" horiz-adv-x="983" d="M41 297v63q0 16 12.5 28.5t28.5 12.5h328q16 0 28.5 -12t12.5 -29v-104q0 -41 8 -54.5t33 -13.5t32.5 13.5t7.5 54.5v41q0 74 -47 117t-145 96q-94 53 -153.5 98t-102.5 125t-43 199q0 145 107.5 226t300.5 81h86q193 0 300 -81t107 -226v-64q0 -16 -12 -28.5t-29 -12.5 h-328q-16 0 -28.5 12.5t-12.5 28.5v105q0 41 -8 54t-32 13q-25 0 -33 -13t-8 -54v-41q0 -72 45 -112t141 -87q96 -49 156.5 -93t104.5 -128t44 -215q0 -145 -107.5 -226t-299.5 -81h-86q-193 0 -300.5 81t-107.5 226z" />
<glyph unicode="t" horiz-adv-x="737" d="M41 952v246q0 12 9 21.5t22 9.5h92v379q0 12 9 21t22 9h348q12 0 21 -9t9 -21v-379h93q12 0 21 -9.5t9 -21.5v-246q0 -12 -9 -21t-21 -9h-93v-891q0 -12 -9 -21.5t-21 -9.5h-348q-12 0 -21.5 9t-9.5 22v891h-92q-12 0 -21.5 9t-9.5 21z" />
<glyph unicode="u" horiz-adv-x="983" d="M41 297v901q0 12 9 21.5t22 9.5h348q12 0 21.5 -9.5t9.5 -21.5v-942q0 -41 8 -54.5t33 -13.5t32.5 13.5t7.5 54.5v942q0 12 9.5 21.5t21.5 9.5h348q13 0 22 -9.5t9 -21.5v-1157q0 -16 -12 -28.5t-29 -12.5h-135q-31 0 -45 23l-49 71q-41 -49 -102.5 -76.5t-137.5 -27.5 h-82q-139 0 -224 85t-85 222z" />
<glyph unicode="v" horiz-adv-x="983" d="M41 307v901q0 12 9 21.5t22 9.5l348 -20q12 0 21.5 -9.5t9.5 -21.5v-922q0 -41 8 -54t33 -13t32.5 13t7.5 54v922q0 12 9.5 21.5t21.5 9.5l348 20q13 0 22 -9t9 -22v-901q0 -145 -107.5 -226t-299.5 -81h-86q-193 0 -300.5 81t-107.5 226z" />
<glyph unicode="w" horiz-adv-x="1474" d="M41 307v891q0 12 9 21.5t22 9.5h348q12 0 21.5 -9.5t9.5 -21.5v-932q0 -41 8 -54t33 -13t32.5 13t7.5 54v932q0 12 9.5 21.5t21.5 9.5h348q12 0 21.5 -9.5t9.5 -21.5v-932q0 -41 8 -54t33 -13t33 13t8 54v932q0 12 9 21.5t22 9.5h348q12 0 21.5 -9.5t9.5 -21.5v-891 q0 -137 -85 -222t-225 -85h-123q-90 0 -158.5 41t-105.5 121q-37 -80 -105.5 -121t-158.5 -41h-123q-139 0 -224 85t-85 222z" />
<glyph unicode="x" horiz-adv-x="983" d="M41 31v346q0 84 45 142.5t162 94.5q-117 37 -162 95.5t-45 142.5v346q0 12 9 21.5t22 9.5h348q12 0 21.5 -9.5t9.5 -21.5v-387q0 -41 8 -54.5t33 -13.5t32.5 13.5t7.5 54.5v387q0 12 9.5 21.5t21.5 9.5h348q12 0 21.5 -9.5t9.5 -21.5v-346q0 -84 -45 -142.5t-162 -95.5 q117 -37 162 -95t45 -142v-346q0 -12 -9 -21.5t-22 -9.5h-348q-12 0 -21.5 9t-9.5 22v387q0 41 -8 54t-32 13q-25 0 -33 -13t-8 -54v-387q0 -12 -9.5 -21.5t-21.5 -9.5h-348q-12 0 -21.5 9t-9.5 22z" />
<glyph unicode="y" horiz-adv-x="983" d="M41 307v891q0 12 9 21.5t22 9.5h348q12 0 21.5 -9.5t9.5 -21.5v-932q0 -41 8 -54t33 -13h40v999q0 12 9.5 21.5t21.5 9.5h348q13 0 22 -9.5t9 -21.5v-1300q0 -145 -107.5 -226.5t-299.5 -81.5h-95q-12 0 -21 9.5t-9 21.5v137q0 12 9 21.5t21 9.5h52q25 0 32.5 13.5 t7.5 54.5v143h-83q-193 0 -300.5 81t-107.5 226z" />
<glyph unicode="z" horiz-adv-x="866" d="M41 952v246q0 12 9 21.5t22 9.5h716q12 0 21.5 -9.5t9.5 -21.5v-190q0 -23 -12 -45l-361 -637l-2 -7q0 -4 4.5 -8t10.5 -4h336q12 0 21 -9t9 -22v-245q0 -12 -9 -21.5t-21 -9.5h-717q-12 0 -21.5 9t-9.5 22v209q0 29 12 49l359 614q2 2 2 6q0 12 -12 13h-336 q-12 0 -21.5 9t-9.5 21z" />
<glyph unicode="{" horiz-adv-x="675" d="M0 655v197q0 12 9 21.5t22 9.5h20q25 0 33 13t8 54v340q0 145 107.5 226t300.5 81h63q12 0 21.5 -9t9.5 -21v-137q0 -12 -9.5 -21.5t-21.5 -9.5h-20q-25 0 -33 -13.5t-8 -54.5v-342q0 -84 -46 -140t-161 -95q117 -37 162 -95.5t45 -142.5v-342q0 -41 8 -54.5t33 -13.5h20 q12 0 21.5 -9t9.5 -21v-137q0 -12 -9.5 -21.5t-21.5 -9.5h-63q-193 0 -300.5 81t-107.5 226v342q0 41 -8 54.5t-33 13.5h-20q-12 0 -21.5 9t-9.5 21z" />
<glyph unicode="|" horiz-adv-x="491" d="M41 -379v1884q0 13 9 22t22 9h348q12 0 21.5 -9t9.5 -22v-1884q0 -12 -9.5 -21.5t-21.5 -9.5h-348q-12 0 -21.5 9.5t-9.5 21.5z" />
<glyph unicode="}" horiz-adv-x="675" d="M41 -61v137q0 12 9 21t22 9h20q25 0 33 13.5t8 54.5v342q0 84 45 142.5t162 95.5q-115 39 -161 95t-46 140v342q0 41 -8 54.5t-33 13.5h-20q-12 0 -21.5 9t-9.5 22v137q0 12 9 21t22 9h63q193 0 300.5 -80.5t107.5 -226.5v-340q0 -41 8 -54t33 -13h20q12 0 21.5 -9.5 t9.5 -21.5v-197q0 -12 -9.5 -21t-21.5 -9h-20q-25 0 -33 -13.5t-8 -54.5v-342q0 -145 -107.5 -226t-300.5 -81h-63q-12 0 -21.5 9t-9.5 22z" />
<glyph unicode="~" horiz-adv-x="933" d="M41 598q23 143 89.5 222t164.5 79q59 0 101 -15.5t93 -43.5q37 -23 67 -34t62 -11q51 0 96.5 19.5t108.5 64.5q11 10 23 10q10 0 24 -10l13 -13q12 -16 8 -24q-23 -145 -87.5 -224t-164.5 -79q-59 0 -101 16t-94 45q-47 25 -72.5 35t-58.5 10q-49 0 -94 -19.5t-108 -64.5 q-10 -10 -25 -10q-12 0 -23 10l-12 12q-12 10 -10 25z" />
<glyph unicode="&#xa1;" horiz-adv-x="561" d="M41 20l41 1096q0 12 9 21.5t22 9.5h336q12 0 21 -9.5t9 -21.5l41 -1096q0 -12 -9 -21t-22 -9h-417q-12 0 -21.5 9t-9.5 21zM76 1434q0 92 56 148t149 56q92 0 148 -56t56 -148t-56 -148.5t-148 -56.5t-148.5 56t-56.5 149z" />
<glyph unicode="&#xa2;" horiz-adv-x="983" d="M41 297v635q0 106 61.5 181t173.5 106v184q0 12 9.5 21.5t21.5 9.5h369q12 0 21.5 -9.5t9.5 -21.5v-184q113 -31 174 -106t61 -181v-252q0 -12 -9 -21.5t-22 -9.5h-348q-12 0 -21.5 9.5t-9.5 21.5v293q0 41 -8 54t-32 13q-25 0 -33 -13t-8 -54v-717q0 -41 8 -54.5 t33 -13.5t32.5 13.5t7.5 54.5v281q0 12 9.5 21t21.5 9h348q12 0 21.5 -9t9.5 -21v-240q0 -106 -61.5 -181t-173.5 -106v-184q0 -12 -9.5 -21.5t-21.5 -9.5h-369q-12 0 -21.5 9.5t-9.5 21.5v184q-113 31 -174 105.5t-61 181.5z" />
<glyph unicode="&#xa3;" d="M0 31v166q0 14 20 24q20 8 21 70v231h-10q-12 0 -21.5 9.5t-9.5 21.5v225q0 12 9 21.5t22 9.5h10v401q0 158 117.5 247t320.5 89h86q203 0 321 -89t118 -247v-145q0 -12 -9.5 -21.5t-21.5 -9.5h-379q-12 0 -21.5 9.5t-9.5 21.5v190q0 43 -9 58.5t-32 15.5t-32 -15.5 t-9 -58.5v-446h359q12 0 21 -9t9 -22v-225q0 -12 -9 -21.5t-21 -9.5h-359v-186q0 -16 -4 -49h496q12 0 21.5 -9.5t9.5 -21.5v-225q0 -12 -9.5 -21.5t-21.5 -9.5h-942q-12 0 -21.5 9t-9.5 22z" />
<glyph unicode="&#xa4;" horiz-adv-x="1286" d="M41 319q0 12 8 21l182 182q-51 98 -51 195q0 98 51 194l-182 183q-8 8 -8 22q0 12 8 21l174 174q10 10 23 10q10 0 20 -10l183 -183q94 51 194 52q104 0 195 -52l182 183q10 10 22 10q10 0 21 -10l174 -174q10 -10 10 -21q0 -12 -10 -22l-182 -183q51 -90 51 -194 q0 -100 -51 -195l182 -182q10 -10 10 -21q0 -12 -10 -22l-174 -174q-8 -8 -21 -8q-14 0 -22 8l-182 182q-96 -51 -195 -51q-96 0 -194 51l-183 -182q-8 -8 -20 -8q-14 0 -23 8l-174 174q-8 8 -8 22zM434 717q0 -80 64 -146q65 -63 145 -63q82 0 145 63q66 70 66 146 q0 80 -66 145q-66 66 -145 66q-76 0 -145 -66q-63 -63 -64 -145z" />
<glyph unicode="&#xa5;" d="M41 774v731q0 12 9 21.5t22 9.5h379q12 0 21 -9t9 -22v-776q0 -43 9.5 -58.5t31.5 -15.5q23 0 32 15.5t9 58.5v776q0 12 9.5 21.5t21.5 9.5h379q12 0 21.5 -9t9.5 -22v-731q0 -119 -69 -199.5t-194 -115.5v-53h160q12 0 21.5 -9.5t9.5 -21.5v-225q0 -12 -9.5 -21.5 t-21.5 -9.5h-160v-88q0 -12 -9 -21.5t-21 -9.5h-377q-12 0 -21.5 9t-9.5 22v88h-160q-12 0 -21 9t-9 22v225q0 12 9 21.5t21 9.5h160v53q-125 35 -193.5 115.5t-68.5 199.5z" />
<glyph unicode="&#xa6;" horiz-adv-x="491" d="M41 -379v871q0 12 9 21t22 9h348q12 0 21.5 -9t9.5 -21v-871q0 -12 -9.5 -21.5t-21.5 -9.5h-348q-12 0 -21.5 9.5t-9.5 21.5zM41 635v870q0 13 9 22t22 9h348q12 0 21.5 -9t9.5 -22v-870q0 -12 -9.5 -21.5t-21.5 -9.5h-348q-12 0 -21.5 9.5t-9.5 21.5z" />
<glyph unicode="&#xa7;" horiz-adv-x="983" d="M41 -100q0 12 9 21t22 9h348q12 0 21.5 -9t9.5 -21v-60q0 -41 8 -54t33 -13t32.5 13t7.5 54v92q0 41 -8 54.5t-32 13.5h-43q-193 0 -300.5 81t-107.5 226v443q0 84 45 142t162 95q-117 39 -162 99.5t-45 158.5q0 145 107.5 226t300.5 81h86q193 0 300 -80.5t107 -226.5 v-39q0 -12 -9 -21t-22 -9h-348q-12 0 -21.5 9t-9.5 21v80q0 41 -8 54.5t-32 13.5q-25 0 -33 -13.5t-8 -54.5v-112q0 -41 8 -54.5t33 -13.5h43q193 0 300 -81t107 -226v-422q0 -84 -45 -142.5t-162 -95.5q117 -39 162 -99t45 -159q0 -145 -107.5 -226t-299.5 -81h-86 q-193 0 -300.5 81t-107.5 226v19zM451 266q0 -41 8 -54t33 -13t32.5 13t7.5 54v574q0 41 -8 54t-32 13q-25 0 -33 -13t-8 -54v-574z" />
<glyph unicode="&#xa8;" horiz-adv-x="1228" d="M164 1450q0 66 39 104.5t104 38.5q63 0 103.5 -38.5t40.5 -104.5q0 -63 -39 -102t-105 -39q-65 0 -104 38.5t-39 102.5zM532 1450q0 66 39 104.5t105 38.5q63 0 103 -38.5t40 -104.5q0 -63 -39 -102t-104 -39q-66 0 -105 38.5t-39 102.5z" />
<glyph unicode="&#xab;" horiz-adv-x="1314" d="M41 614l227 375q21 35 54 35h364q20 0 31.5 -14.5t1.5 -30.5l-219 -365l215 -360q6 -8 6 -18q0 -14 -11.5 -22.5t-27.5 -8.5h-360q-33 0 -54 35zM592 614l227 375q20 35 53 35h365q20 0 31.5 -14.5t1.5 -30.5l-240 -365l236 -360q6 -8 6 -18q0 -14 -11.5 -22.5 t-27.5 -8.5h-361q-33 0 -53 35z" />
<glyph unicode="&#xac;" horiz-adv-x="1003" d="M41 573v267q0 12 9 21t22 9h860q12 0 21.5 -9t9.5 -21v-523q0 -12 -9.5 -21t-21.5 -9h-164q-12 0 -21.5 9t-9.5 21v226h-665q-12 0 -21.5 9t-9.5 21z" />
<glyph unicode="&#xad;" horiz-adv-x="655" d="M41 580v266q0 12 9 21.5t22 9.5h512q12 0 21 -9.5t9 -21.5v-266q0 -12 -9 -21.5t-21 -9.5h-512q-12 0 -21.5 9t-9.5 22z" />
<glyph unicode="&#xaf;" horiz-adv-x="1228" d="M215 1341v103q0 12 9 21.5t22 9.5h491q12 0 21.5 -9.5t9.5 -21.5v-103q0 -12 -9 -21t-22 -9h-491q-12 0 -21.5 9t-9.5 21z" />
<glyph unicode="&#xb1;" horiz-adv-x="1146" d="M102 35v180q0 12 9 21.5t22 9.5h880q13 0 22 -9.5t9 -21.5v-180q0 -12 -9 -21.5t-22 -9.5h-880q-12 0 -21.5 9t-9.5 22zM102 655v246q0 12 9.5 21.5t21.5 9.5h256v266q0 12 9.5 21.5t21.5 9.5h307q12 0 21.5 -9.5t9.5 -21.5v-266h256q12 0 21 -9t9 -22v-246q0 -12 -9 -21 t-21 -9h-256v-266q0 -12 -9.5 -21.5t-21.5 -9.5h-307q-12 0 -21.5 9t-9.5 22v266h-256q-12 0 -21.5 9t-9.5 21z" />
<glyph unicode="&#xb4;" horiz-adv-x="1228" d="M209 1378q0 18 12 25l436 237q33 18 66 19q57 0 80 -57l14 -37q10 -27 10 -47q0 -33 -18.5 -56.5t-48.5 -29.5l-502 -103h-6q-10 0 -20.5 4t-12.5 13l-8 20q-2 4 -2 12z" />
<glyph unicode="&#xb7;" horiz-adv-x="491" d="M41 611q0 92 56.5 148t148.5 56t148.5 -56t56.5 -148t-56.5 -148.5t-148.5 -56.5t-148.5 56t-56.5 149z" />
<glyph unicode="&#xb8;" horiz-adv-x="1228" d="M270 -311q0 14 10.5 23t24.5 7l113 -10q39 -4 55 8.5t16 42.5q0 29 -12 41.5t-39 12.5l-20 -2l-35 -5h-4q-8 0 -16.5 5.5t-12.5 13.5l-10 29q-2 8 2 16l90 219h191l-144 -166q16 2 49 2q98 0 152.5 -43t54.5 -123q0 -82 -50 -126t-140 -44q-31 0 -66 7l-182 26 q-10 2 -18.5 11.5t-8.5 19.5v35z" />
<glyph unicode="&#xbb;" horiz-adv-x="1314" d="M41 993q0 12 11 21.5t26 9.5h364q33 0 54 -35l227 -375l-227 -374q-20 -35 -54 -35h-360q-16 0 -27.5 8t-11.5 23q0 10 6 18l236 360l-240 365q-4 4 -4 14zM592 993q0 12 11 21.5t26 9.5h364q33 0 54 -35l227 -375l-227 -374q-20 -35 -54 -35h-360q-16 0 -27.5 8 t-11.5 23q0 10 6 18l215 360l-219 365q-4 4 -4 14z" />
<glyph unicode="&#xbf;" horiz-adv-x="983" d="M41 297v106q0 102 32.5 172t79 111t117.5 88q80 51 118 93t38 110v53q0 31 51 31h144q12 0 21 -9.5t9 -21.5v-53q0 -129 -29.5 -202t-84.5 -150q-45 -61 -65.5 -105.5t-20.5 -116.5v-147q0 -41 8 -54.5t33 -13.5t32.5 13.5t7.5 54.5v233q0 12 9.5 21.5t21.5 9.5h348 q13 0 22 -9t9 -22v-198q-4 -141 -110.5 -221t-296.5 -80h-86q-193 0 -300.5 81t-107.5 226zM319 1341q0 92 56.5 148.5t148.5 56.5t148.5 -56t56.5 -149q0 -92 -56.5 -148t-148.5 -56t-148.5 56t-56.5 148z" />
<glyph unicode="&#xc0;" d="M41 31v1179q0 158 117.5 247t320.5 89h86q203 0 321 -89t118 -247v-1179q0 -12 -9.5 -21.5t-21.5 -9.5h-379q-12 0 -21.5 9t-9.5 22v368h-82v-368q0 -12 -9 -21.5t-21 -9.5h-379q-12 0 -21.5 9t-9.5 22zM215 1825q0 20 10 47l14 37q23 57 80 57q33 0 66 -19l436 -237 q8 -4 11 -16.5t-1 -20.5l-8 -20q-2 -8 -14.5 -13.5t-24.5 -3.5l-502 103q-31 6 -49 29.5t-18 56.5zM481 616h82v639q0 43 -9 58.5t-32 15.5t-32 -15.5t-9 -58.5v-639z" />
<glyph unicode="&#xc1;" d="M41 31v1179q0 158 117.5 247t320.5 89h86q203 0 321 -89t118 -247v-1179q0 -12 -9.5 -21.5t-21.5 -9.5h-379q-12 0 -21.5 9t-9.5 22v368h-82v-368q0 -12 -9 -21.5t-21 -9.5h-379q-12 0 -21.5 9t-9.5 22zM209 1675q0 18 12 25l436 237q33 18 66 19q57 0 80 -57l14 -37 q10 -27 10 -47q0 -33 -18.5 -56.5t-48.5 -29.5l-502 -103h-6q-10 0 -20.5 4t-12.5 13l-8 20q-2 4 -2 12zM481 616h82v639q0 43 -9 58.5t-32 15.5t-32 -15.5t-9 -58.5v-639z" />
<glyph unicode="&#xc2;" d="M41 31v1179q0 158 117.5 247t320.5 89h86q203 0 321 -89t118 -247v-1179q0 -12 -9.5 -21.5t-21.5 -9.5h-379q-12 0 -21.5 9t-9.5 22v368h-82v-368q0 -12 -9 -21.5t-21 -9.5h-379q-12 0 -21.5 9t-9.5 22zM224 1751q0 16 10 24l203 191q27 27 69 26h23q43 0 69 -26 l203 -191q10 -10 10 -22q0 -10 -10 -25l-94 -82q-8 -8 -19 -8q-12 0 -22 10l-148 146l-149 -146q-10 -10 -23 -10q-10 0 -18 8l-94 80q-10 8 -10 25zM481 616h82v639q0 43 -9 58.5t-32 15.5t-32 -15.5t-9 -58.5v-639z" />
<glyph unicode="&#xc3;" d="M41 31v1179q0 158 117.5 247t320.5 89h86q203 0 321 -89t118 -247v-1179q0 -12 -9.5 -21.5t-21.5 -9.5h-379q-12 0 -21.5 9t-9.5 22v368h-82v-368q0 -12 -9 -21.5t-21 -9.5h-379q-12 0 -21.5 9t-9.5 22zM145 1692q18 121 73.5 186.5t137.5 65.5q49 0 85 -13.5t77 -37.5 q37 -18 59.5 -27.5t49.5 -9.5q43 0 80.5 16.5t89.5 53.5q8 8 20 8q10 0 19 -8l10 -11q10 -10 8 -20q-18 -121 -73.5 -186.5t-137.5 -65.5q-49 0 -85 13.5t-77 37.5q-37 18 -59.5 27.5t-48.5 9.5q-43 0 -81 -16.5t-89 -53.5q-8 -8 -21 -8q-10 0 -18 8l-10 11q-10 10 -9 20z M481 616h82v639q0 43 -9 58.5t-32 15.5t-32 -15.5t-9 -58.5v-639z" />
<glyph unicode="&#xc4;" d="M41 31v1179q0 158 117.5 247t320.5 89h86q203 0 321 -89t118 -247v-1179q0 -12 -9.5 -21.5t-21.5 -9.5h-379q-12 0 -21.5 9t-9.5 22v368h-82v-368q0 -12 -9 -21.5t-21 -9.5h-379q-12 0 -21.5 9t-9.5 22zM195 1747q0 66 39 104.5t104 38.5q63 0 103.5 -38.5t40.5 -104.5 q0 -63 -39 -102t-105 -39q-65 0 -104 38.5t-39 102.5zM481 616h82v639q0 43 -9 58.5t-32 15.5t-32 -15.5t-9 -58.5v-639zM563 1747q0 66 39 104.5t105 38.5q63 0 103 -38.5t40 -104.5q0 -63 -39 -102t-104 -39q-66 0 -105 38.5t-39 102.5z" />
<glyph unicode="&#xc5;" d="M41 31v1179q0 158 117.5 247t320.5 89h86q203 0 321 -89t118 -247v-1179q0 -12 -9.5 -21.5t-21.5 -9.5h-379q-12 0 -21.5 9t-9.5 22v368h-82v-368q0 -12 -9 -21.5t-21 -9.5h-379q-12 0 -21.5 9t-9.5 22zM318 1813q0 92 56 148t149 56q92 0 148 -56t56 -148t-56 -148.5 t-148 -56.5q-93 0 -149 56t-56 149zM467 1813q0 -55 56 -56q55 1 55 56t-55 55t-56 -55zM481 616h82v639q0 43 -9 58.5t-32 15.5t-32 -15.5t-9 -58.5v-639z" />
<glyph unicode="&#xc6;" horiz-adv-x="1495" d="M41 31v1169q0 158 117.5 247t320.5 89h944q12 0 21.5 -9t9.5 -22v-245q0 -12 -9 -21.5t-22 -9.5h-419v-320h317q12 0 21.5 -9t9.5 -21v-217q0 -12 -9.5 -21.5t-21.5 -9.5h-317v-324h419q12 0 21.5 -9t9.5 -22v-245q0 -12 -9 -21.5t-22 -9.5h-829q-12 0 -21.5 9t-9.5 22 v368h-82v-368q0 -12 -9 -21.5t-21 -9.5h-379q-12 0 -21.5 9t-9.5 22zM481 616h82v703h-41q-23 0 -32 -15.5t-9 -58.5v-629z" />
<glyph unicode="&#xc7;" d="M41 326v884q0 158 117.5 247t320.5 89h86q203 0 321 -89t118 -247v-370q0 -12 -9.5 -21.5t-21.5 -9.5h-379q-12 0 -21.5 9t-9.5 22v415q0 43 -9 58.5t-32 15.5t-32 -15.5t-9 -58.5v-974q0 -43 9.5 -58.5t31.5 -15.5q23 0 32 15.5t9 58.5v415q0 12 9.5 21.5t21.5 9.5h379 q12 0 21.5 -9t9.5 -22v-370q0 -156 -114 -244t-312 -92l-58 -66q16 2 49 2q98 0 152.5 -43t54.5 -123q0 -82 -50 -126t-140 -44q-31 0 -66 7l-182 26q-10 2 -18.5 11.5t-8.5 19.5v35q0 14 10.5 23t24.5 7l113 -10q39 -4 55 8.5t16 42.5q0 29 -12 41.5t-39 12.5l-20 -2 l-35 -5h-4q-8 0 -16.5 5.5t-12.5 13.5l-10 29q-2 8 2 16l49 121q-182 10 -286.5 98t-104.5 236z" />
<glyph unicode="&#xc8;" horiz-adv-x="972" d="M41 31v1474q0 12 9 21.5t22 9.5h829q12 0 21.5 -9t9.5 -22v-245q0 -12 -9.5 -21.5t-21.5 -9.5h-420v-320h318q12 0 21 -9t9 -21v-217q0 -12 -9 -21.5t-21 -9.5h-318v-324h420q12 0 21.5 -9t9.5 -22v-245q0 -12 -9.5 -21.5t-21.5 -9.5h-829q-12 0 -21.5 9t-9.5 22z M174 1825q0 20 10 47l14 37q23 57 80 57q33 0 66 -19l436 -237q8 -4 11 -16.5t-1 -20.5l-8 -20q-2 -8 -14.5 -13.5t-24.5 -3.5l-502 103q-31 6 -49 29.5t-18 56.5z" />
<glyph unicode="&#xc9;" horiz-adv-x="972" d="M41 31v1474q0 12 9 21.5t22 9.5h829q12 0 21.5 -9t9.5 -22v-245q0 -12 -9.5 -21.5t-21.5 -9.5h-420v-320h318q12 0 21 -9t9 -21v-217q0 -12 -9 -21.5t-21 -9.5h-318v-324h420q12 0 21.5 -9t9.5 -22v-245q0 -12 -9.5 -21.5t-21.5 -9.5h-829q-12 0 -21.5 9t-9.5 22z M209 1675q0 18 12 25l436 237q33 18 66 19q57 0 80 -57l14 -37q10 -27 10 -47q0 -33 -18.5 -56.5t-48.5 -29.5l-502 -103h-6q-10 0 -20.5 4t-12.5 13l-8 20q-2 4 -2 12z" />
<glyph unicode="&#xca;" horiz-adv-x="972" d="M41 31v1474q0 12 9 21.5t22 9.5h829q12 0 21.5 -9t9.5 -22v-245q0 -12 -9.5 -21.5t-21.5 -9.5h-420v-320h318q12 0 21 -9t9 -21v-217q0 -12 -9 -21.5t-21 -9.5h-318v-324h420q12 0 21.5 -9t9.5 -22v-245q0 -12 -9.5 -21.5t-21.5 -9.5h-829q-12 0 -21.5 9t-9.5 22z M224 1751q0 16 10 24l203 191q27 27 69 26h23q43 0 69 -26l203 -191q10 -10 10 -22q0 -10 -10 -25l-94 -82q-8 -8 -19 -8q-12 0 -22 10l-148 146l-149 -146q-10 -10 -23 -10q-10 0 -18 8l-94 80q-10 8 -10 25z" />
<glyph unicode="&#xcb;" horiz-adv-x="972" d="M41 31v1474q0 12 9 21.5t22 9.5h829q12 0 21.5 -9t9.5 -22v-245q0 -12 -9.5 -21.5t-21.5 -9.5h-420v-320h318q12 0 21 -9t9 -21v-217q0 -12 -9 -21.5t-21 -9.5h-318v-324h420q12 0 21.5 -9t9.5 -22v-245q0 -12 -9.5 -21.5t-21.5 -9.5h-829q-12 0 -21.5 9t-9.5 22z M164 1747q0 66 39 104.5t104 38.5q63 0 103.5 -38.5t40.5 -104.5q0 -63 -39 -102t-105 -39q-65 0 -104 38.5t-39 102.5zM532 1747q0 66 39 104.5t105 38.5q63 0 103 -38.5t40 -104.5q0 -63 -39 -102t-104 -39q-66 0 -105 38.5t-39 102.5z" />
<glyph unicode="&#xcc;" horiz-adv-x="522" d="M-45 1825q0 20 10 47l14 37q23 57 80 57q33 0 66 -19l436 -237q8 -4 11 -16.5t-1 -20.5l-8 -20q-2 -8 -14.5 -13.5t-24.5 -3.5l-502 103q-31 6 -49 29.5t-18 56.5zM41 31v1474q0 13 9 22t22 9h379q12 0 21 -9t9 -22v-1474q0 -12 -9 -21.5t-21 -9.5h-379q-12 0 -21.5 9 t-9.5 22z" />
<glyph unicode="&#xcd;" horiz-adv-x="522" d="M-49 1675q0 18 12 25l436 237q33 18 66 19q57 0 80 -57l14 -37q10 -27 10 -47q0 -33 -18.5 -56.5t-48.5 -29.5l-502 -103h-6q-10 0 -20.5 4t-12.5 13l-8 20q-2 4 -2 12zM41 31v1474q0 13 9 22t22 9h379q12 0 21 -9t9 -22v-1474q0 -12 -9 -21.5t-21 -9.5h-379 q-12 0 -21.5 9t-9.5 22z" />
<glyph unicode="&#xce;" horiz-adv-x="522" d="M-34 1751q0 16 10 24l203 191q27 27 69 26h23q43 0 69 -26l203 -191q10 -10 10 -22q0 -10 -10 -25l-94 -82q-8 -8 -19 -8q-12 0 -22 10l-148 146l-149 -146q-10 -10 -23 -10q-10 0 -18 8l-94 80q-10 8 -10 25zM41 31v1474q0 13 9 22t22 9h379q12 0 21 -9t9 -22v-1474 q0 -12 -9 -21.5t-21 -9.5h-379q-12 0 -21.5 9t-9.5 22z" />
<glyph unicode="&#xcf;" horiz-adv-x="522" d="M-65 1747q0 66 39 104.5t104 38.5q63 0 103.5 -38.5t40.5 -104.5q0 -63 -39 -102t-105 -39q-65 0 -104 38.5t-39 102.5zM41 31v1474q0 13 9 22t22 9h379q12 0 21 -9t9 -22v-1474q0 -12 -9 -21.5t-21 -9.5h-379q-12 0 -21.5 9t-9.5 22zM303 1747q0 66 39 104.5t105 38.5 q63 0 103 -38.5t40 -104.5q0 -63 -39 -102t-104 -39q-66 0 -105 38.5t-39 102.5z" />
<glyph unicode="&#xd0;" d="M-20 694v150q0 14 9 24.5t23 10.5h29v626q0 12 9 21.5t22 9.5h493q203 0 321 -89t118 -247v-864q0 -158 -118 -247t-321 -89h-493q-12 0 -21.5 9t-9.5 22v628h-29q-14 0 -23 10.5t-9 24.5zM481 217h41q23 0 32 15.5t9 58.5v954q0 43 -9 58.5t-32 15.5h-41v-440h19 q14 0 23 -10.5t9 -24.5v-150q0 -14 -9 -24.5t-23 -10.5h-19v-442z" />
<glyph unicode="&#xd1;" d="M41 31v1462q0 16 12.5 28.5t28.5 12.5h135q29 0 45 -23l53 -73q45 53 111 80.5t147 27.5h91q151 0 245.5 -93t94.5 -245v-1177q0 -12 -9.5 -21.5t-21.5 -9.5h-379q-12 0 -21.5 9t-9.5 22v1222q0 45 -8 59.5t-33 14.5t-33 -14.5t-8 -59.5v-1222q0 -12 -9 -21.5t-21 -9.5 h-379q-12 0 -21.5 9t-9.5 22zM145 1692q18 121 73.5 186.5t137.5 65.5q49 0 85 -13.5t77 -37.5q37 -18 59.5 -27.5t49.5 -9.5q43 0 80.5 16.5t89.5 53.5q8 8 20 8q10 0 19 -8l10 -11q10 -10 8 -20q-18 -121 -73.5 -186.5t-137.5 -65.5q-49 0 -85 13.5t-77 37.5 q-37 18 -59.5 27.5t-48.5 9.5q-43 0 -81 -16.5t-89 -53.5q-8 -8 -21 -8q-10 0 -18 8l-10 11q-10 10 -9 20z" />
<glyph unicode="&#xd2;" d="M41 324v886q0 158 117.5 247t320.5 89h86q203 0 321 -89t118 -247v-886q-2 -156 -119 -245t-320 -89h-86q-203 0 -319.5 89t-118.5 245zM215 1825q0 20 10 47l14 37q23 57 80 57q33 0 66 -19l436 -237q8 -4 11 -16.5t-1 -20.5l-8 -20q-2 -8 -14.5 -13.5t-24.5 -3.5 l-502 103q-31 6 -49 29.5t-18 56.5zM481 281q0 -43 9.5 -58.5t31.5 -15.5q23 0 32 15.5t9 58.5v974q0 43 -9 58.5t-32 15.5t-32 -15.5t-9 -58.5v-974z" />
<glyph unicode="&#xd3;" d="M41 324v886q0 158 117.5 247t320.5 89h86q203 0 321 -89t118 -247v-886q-2 -156 -119 -245t-320 -89h-86q-203 0 -319.5 89t-118.5 245zM209 1675q0 18 12 25l436 237q33 18 66 19q57 0 80 -57l14 -37q10 -27 10 -47q0 -33 -18.5 -56.5t-48.5 -29.5l-502 -103h-6 q-10 0 -20.5 4t-12.5 13l-8 20q-2 4 -2 12zM481 281q0 -43 9.5 -58.5t31.5 -15.5q23 0 32 15.5t9 58.5v974q0 43 -9 58.5t-32 15.5t-32 -15.5t-9 -58.5v-974z" />
<glyph unicode="&#xd4;" d="M41 324v886q0 158 117.5 247t320.5 89h86q203 0 321 -89t118 -247v-886q-2 -156 -119 -245t-320 -89h-86q-203 0 -319.5 89t-118.5 245zM224 1751q0 16 10 24l203 191q27 27 69 26h23q43 0 69 -26l203 -191q10 -10 10 -22q0 -10 -10 -25l-94 -82q-8 -8 -19 -8 q-12 0 -22 10l-148 146l-149 -146q-10 -10 -23 -10q-10 0 -18 8l-94 80q-10 8 -10 25zM481 281q0 -43 9.5 -58.5t31.5 -15.5q23 0 32 15.5t9 58.5v974q0 43 -9 58.5t-32 15.5t-32 -15.5t-9 -58.5v-974z" />
<glyph unicode="&#xd5;" d="M41 324v886q0 158 117.5 247t320.5 89h86q203 0 321 -89t118 -247v-886q-2 -156 -119 -245t-320 -89h-86q-203 0 -319.5 89t-118.5 245zM145 1692q18 121 73.5 186.5t137.5 65.5q49 0 85 -13.5t77 -37.5q37 -18 59.5 -27.5t49.5 -9.5q43 0 80.5 16.5t89.5 53.5q8 8 20 8 q10 0 19 -8l10 -11q10 -10 8 -20q-18 -121 -73.5 -186.5t-137.5 -65.5q-49 0 -85 13.5t-77 37.5q-37 18 -59.5 27.5t-48.5 9.5q-43 0 -81 -16.5t-89 -53.5q-8 -8 -21 -8q-10 0 -18 8l-10 11q-10 10 -9 20zM481 281q0 -43 9.5 -58.5t31.5 -15.5q23 0 32 15.5t9 58.5v974 q0 43 -9 58.5t-32 15.5t-32 -15.5t-9 -58.5v-974z" />
<glyph unicode="&#xd6;" d="M41 324v886q0 158 117.5 247t320.5 89h86q203 0 321 -89t118 -247v-886q-2 -156 -119 -245t-320 -89h-86q-203 0 -319.5 89t-118.5 245zM195 1747q0 66 39 104.5t104 38.5q63 0 103.5 -38.5t40.5 -104.5q0 -63 -39 -102t-105 -39q-65 0 -104 38.5t-39 102.5zM481 281 q0 -43 9.5 -58.5t31.5 -15.5q23 0 32 15.5t9 58.5v974q0 43 -9 58.5t-32 15.5t-32 -15.5t-9 -58.5v-974zM563 1747q0 66 39 104.5t105 38.5q63 0 103 -38.5t40 -104.5q0 -63 -39 -102t-104 -39q-66 0 -105 38.5t-39 102.5z" />
<glyph unicode="&#xd7;" horiz-adv-x="1052" d="M41 391q0 14 8 23l232 231l-232 232q-8 8 -8 22t8 21l203 202q10 10 20 11q12 0 23 -11l231 -231l232 231q10 10 22 11q14 0 21 -11l203 -202q10 -6 10 -21q0 -12 -10 -22l-232 -232l232 -231q10 -10 10 -23q0 -10 -10 -20l-203 -203q-6 -8 -21 -8q-14 0 -22 8l-232 231 l-231 -231q-8 -8 -23 -8q-12 0 -20 8l-203 203q-8 8 -8 20z" />
<glyph unicode="&#xd8;" d="M41 324v886q0 158 117.5 247t320.5 89h86q141 0 240 -43l53 113q6 14 17.5 18t23.5 -2l47 -24q29 -14 19 -39l-60 -127q99 -89 99 -232v-886q-2 -156 -119 -245t-320 -89h-86q-135 0 -235 41l-58 -125q-6 -14 -17 -17.5t-24 2.5l-47 25q-27 12 -16 41l61 133 q-102 90 -102 234zM481 281q0 -43 9.5 -58.5t31.5 -15.5q23 0 32 15.5t9 58.5v430l-82 -174v-256zM481 811l82 174v270q0 43 -9 58.5t-32 15.5t-32 -15.5t-9 -58.5v-444z" />
<glyph unicode="&#xd9;" d="M41 324v1181q0 12 9 21.5t22 9.5h379q12 0 21 -9t9 -22v-1224q0 -45 8.5 -59.5t32.5 -14.5q25 0 33 14.5t8 59.5v1224q0 12 9.5 21.5t21.5 9.5h379q12 0 21.5 -9t9.5 -22v-1464q0 -16 -12.5 -28.5t-28.5 -12.5h-136q-29 0 -45 23l-53 73q-45 -53 -110.5 -80.5 t-147.5 -27.5h-90q-152 0 -246 93t-94 243zM215 1825q0 20 10 47l14 37q23 57 80 57q33 0 66 -19l436 -237q8 -4 11 -16.5t-1 -20.5l-8 -20q-2 -8 -14.5 -13.5t-24.5 -3.5l-502 103q-31 6 -49 29.5t-18 56.5z" />
<glyph unicode="&#xda;" d="M41 324v1181q0 12 9 21.5t22 9.5h379q12 0 21 -9t9 -22v-1224q0 -45 8.5 -59.5t32.5 -14.5q25 0 33 14.5t8 59.5v1224q0 12 9.5 21.5t21.5 9.5h379q12 0 21.5 -9t9.5 -22v-1464q0 -16 -12.5 -28.5t-28.5 -12.5h-136q-29 0 -45 23l-53 73q-45 -53 -110.5 -80.5 t-147.5 -27.5h-90q-152 0 -246 93t-94 243zM209 1675q0 18 12 25l436 237q33 18 66 19q57 0 80 -57l14 -37q10 -27 10 -47q0 -33 -18.5 -56.5t-48.5 -29.5l-502 -103h-6q-10 0 -20.5 4t-12.5 13l-8 20q-2 4 -2 12z" />
<glyph unicode="&#xdb;" d="M41 324v1181q0 12 9 21.5t22 9.5h379q12 0 21 -9t9 -22v-1224q0 -45 8.5 -59.5t32.5 -14.5q25 0 33 14.5t8 59.5v1224q0 12 9.5 21.5t21.5 9.5h379q12 0 21.5 -9t9.5 -22v-1464q0 -16 -12.5 -28.5t-28.5 -12.5h-136q-29 0 -45 23l-53 73q-45 -53 -110.5 -80.5 t-147.5 -27.5h-90q-152 0 -246 93t-94 243zM224 1751q0 16 10 24l203 191q27 27 69 26h23q43 0 69 -26l203 -191q10 -10 10 -22q0 -10 -10 -25l-94 -82q-8 -8 -19 -8q-12 0 -22 10l-148 146l-149 -146q-10 -10 -23 -10q-10 0 -18 8l-94 80q-10 8 -10 25z" />
<glyph unicode="&#xdc;" d="M41 324v1181q0 12 9 21.5t22 9.5h379q12 0 21 -9t9 -22v-1224q0 -45 8.5 -59.5t32.5 -14.5q25 0 33 14.5t8 59.5v1224q0 12 9.5 21.5t21.5 9.5h379q12 0 21.5 -9t9.5 -22v-1464q0 -16 -12.5 -28.5t-28.5 -12.5h-136q-29 0 -45 23l-53 73q-45 -53 -110.5 -80.5 t-147.5 -27.5h-90q-152 0 -246 93t-94 243zM195 1747q0 66 39 104.5t104 38.5q63 0 103.5 -38.5t40.5 -104.5q0 -63 -39 -102t-105 -39q-65 0 -104 38.5t-39 102.5zM563 1747q0 66 39 104.5t105 38.5q63 0 103 -38.5t40 -104.5q0 -63 -39 -102t-104 -39q-66 0 -105 38.5 t-39 102.5z" />
<glyph unicode="&#xdd;" d="M41 774v731q0 12 9 21.5t22 9.5h379q12 0 21 -9t9 -22v-776q0 -43 9.5 -58.5t31.5 -15.5q23 0 32 15.5t9 58.5v776q0 12 9.5 21.5t21.5 9.5h379q12 0 21.5 -9t9.5 -22v-731q0 -119 -69 -199.5t-194 -115.5v-428q0 -12 -9 -21.5t-21 -9.5h-377q-12 0 -21.5 9t-9.5 22v428 q-125 35 -193.5 115.5t-68.5 199.5zM221 1675q0 18 12 25l436 237q33 18 66 19q57 0 80 -57l14 -37q10 -27 10 -47q0 -33 -18.5 -56.5t-48.5 -29.5l-502 -103h-6q-10 0 -20.5 4t-12.5 13l-8 20q-2 4 -2 12z" />
<glyph unicode="&#xde;" horiz-adv-x="1228" d="M41 -379v1987q0 12 9 21t22 9h379q12 0 21 -9t9 -21v-379q47 10 92 10h91q151 0 245.5 -93t94.5 -245v-573q0 -152 -94.5 -245t-245.5 -93h-91q-45 0 -92 10v-379q0 -12 -9 -21.5t-21 -9.5h-379q-12 0 -21.5 9.5t-9.5 21.5zM481 283q0 -45 8.5 -59.5t32.5 -14.5 q25 0 33 14.5t8 59.5v663q0 45 -8 59.5t-33 14.5t-33 -14.5t-8 -59.5v-663z" />
<glyph unicode="&#xdf;" horiz-adv-x="983" d="M41 31v1208q0 145 107.5 226t300.5 81h86q193 0 300 -81t107 -226v-240q0 -84 -45 -142t-162 -95q117 -37 162 -95.5t45 -142.5v-217q0 -145 -107.5 -226t-299.5 -81h-13q-12 0 -21 9t-9 22v145q0 16 20 27q20 8 20 63v299q0 55 -20 64q-20 10 -20 26v213q0 16 20 27 q20 8 20 63v322q0 41 -8 54.5t-32 13.5q-25 0 -33 -13.5t-8 -54.5v-1249q0 -12 -9.5 -21.5t-21.5 -9.5h-348q-12 0 -21.5 9t-9.5 22z" />
<glyph unicode="&#xe0;" horiz-adv-x="983" d="M41 297v154q0 145 107.5 226t300.5 81h83v215q0 41 -8 54t-32 13q-25 0 -33 -13t-8 -54v-109q0 -16 -12.5 -28.5t-28.5 -12.5h-318q-16 0 -28.5 12.5t-12.5 28.5v68q0 143 106.5 225t291.5 82h86q192 0 299.5 -81t107.5 -226v-891q0 -16 -12 -28.5t-29 -12.5h-135 q-31 0 -45 23l-49 71q-41 -49 -102.5 -76.5t-137.5 -27.5h-82q-139 0 -224 85t-85 222zM174 1518q0 20 10 47l14 37q23 57 80 57q33 0 66 -19l436 -237q8 -4 11 -16.5t-1 -20.5l-8 -20q-2 -8 -14.5 -13.5t-24.5 -3.5l-502 103q-31 6 -49 29.5t-18 56.5zM451 256 q0 -41 8 -54.5t33 -13.5t32.5 13.5t7.5 54.5v303h-40q-25 0 -33 -13.5t-8 -53.5v-236z" />
<glyph unicode="&#xe1;" horiz-adv-x="983" d="M41 297v154q0 145 107.5 226t300.5 81h83v215q0 41 -8 54t-32 13q-25 0 -33 -13t-8 -54v-109q0 -16 -12.5 -28.5t-28.5 -12.5h-318q-16 0 -28.5 12.5t-12.5 28.5v68q0 143 106.5 225t291.5 82h86q192 0 299.5 -81t107.5 -226v-891q0 -16 -12 -28.5t-29 -12.5h-135 q-31 0 -45 23l-49 71q-41 -49 -102.5 -76.5t-137.5 -27.5h-82q-139 0 -224 85t-85 222zM209 1378q0 18 12 25l436 237q33 18 66 19q57 0 80 -57l14 -37q10 -27 10 -47q0 -33 -18.5 -56.5t-48.5 -29.5l-502 -103h-6q-10 0 -20.5 4t-12.5 13l-8 20q-2 4 -2 12zM451 256 q0 -41 8 -54.5t33 -13.5t32.5 13.5t7.5 54.5v303h-40q-25 0 -33 -13.5t-8 -53.5v-236z" />
<glyph unicode="&#xe2;" horiz-adv-x="983" d="M41 297v154q0 145 107.5 226t300.5 81h83v215q0 41 -8 54t-32 13q-25 0 -33 -13t-8 -54v-109q0 -16 -12.5 -28.5t-28.5 -12.5h-318q-16 0 -28.5 12.5t-12.5 28.5v68q0 143 106.5 225t291.5 82h86q192 0 299.5 -81t107.5 -226v-891q0 -16 -12 -28.5t-29 -12.5h-135 q-31 0 -45 23l-49 71q-41 -49 -102.5 -76.5t-137.5 -27.5h-82q-139 0 -224 85t-85 222zM197 1440q0 16 10 24l203 191q27 27 69 26h23q43 0 69 -26l203 -191q10 -10 10 -22q0 -10 -10 -25l-94 -82q-8 -8 -19 -8q-12 0 -22 10l-148 146l-149 -146q-10 -10 -23 -10 q-10 0 -18 8l-94 80q-10 8 -10 25zM451 256q0 -41 8 -54.5t33 -13.5t32.5 13.5t7.5 54.5v303h-40q-25 0 -33 -13.5t-8 -53.5v-236z" />
<glyph unicode="&#xe3;" horiz-adv-x="983" d="M41 297v154q0 145 107.5 226t300.5 81h83v215q0 41 -8 54t-32 13q-25 0 -33 -13t-8 -54v-109q0 -16 -12.5 -28.5t-28.5 -12.5h-318q-16 0 -28.5 12.5t-12.5 28.5v68q0 143 106.5 225t291.5 82h86q192 0 299.5 -81t107.5 -226v-891q0 -16 -12 -28.5t-29 -12.5h-135 q-31 0 -45 23l-49 71q-41 -49 -102.5 -76.5t-137.5 -27.5h-82q-139 0 -224 85t-85 222zM145 1370q18 121 73.5 186.5t137.5 65.5q49 0 85 -13.5t77 -37.5q37 -18 59.5 -27.5t49.5 -9.5q43 0 80.5 16.5t89.5 53.5q8 8 20 8q10 0 19 -8l10 -11q10 -10 8 -20 q-18 -121 -73.5 -186.5t-137.5 -65.5q-49 0 -85 13.5t-77 37.5q-37 18 -59.5 27.5t-48.5 9.5q-43 0 -81 -16.5t-89 -53.5q-8 -8 -21 -8q-10 0 -18 8l-10 11q-10 10 -9 20zM451 256q0 -41 8 -54.5t33 -13.5t32.5 13.5t7.5 54.5v303h-40q-25 0 -33 -13.5t-8 -53.5v-236z" />
<glyph unicode="&#xe4;" horiz-adv-x="983" d="M41 297v154q0 145 107.5 226t300.5 81h83v215q0 41 -8 54t-32 13q-25 0 -33 -13t-8 -54v-109q0 -16 -12.5 -28.5t-28.5 -12.5h-318q-16 0 -28.5 12.5t-12.5 28.5v68q0 143 106.5 225t291.5 82h86q192 0 299.5 -81t107.5 -226v-891q0 -16 -12 -28.5t-29 -12.5h-135 q-31 0 -45 23l-49 71q-41 -49 -102.5 -76.5t-137.5 -27.5h-82q-139 0 -224 85t-85 222zM164 1450q0 66 39 104.5t104 38.5q63 0 103.5 -38.5t40.5 -104.5q0 -63 -39 -102t-105 -39q-65 0 -104 38.5t-39 102.5zM451 256q0 -41 8 -54.5t33 -13.5t32.5 13.5t7.5 54.5v303h-40 q-25 0 -33 -13.5t-8 -53.5v-236zM532 1450q0 66 39 104.5t105 38.5q63 0 103 -38.5t40 -104.5q0 -63 -39 -102t-104 -39q-66 0 -105 38.5t-39 102.5z" />
<glyph unicode="&#xe5;" horiz-adv-x="983" d="M41 297v154q0 145 107.5 226t300.5 81h83v215q0 41 -8 54t-32 13q-25 0 -33 -13t-8 -54v-109q0 -16 -12.5 -28.5t-28.5 -12.5h-318q-16 0 -28.5 12.5t-12.5 28.5v68q0 143 106.5 225t291.5 82h86q192 0 299.5 -81t107.5 -226v-891q0 -16 -12 -28.5t-29 -12.5h-135 q-31 0 -45 23l-49 71q-41 -49 -102.5 -76.5t-137.5 -27.5h-82q-139 0 -224 85t-85 222zM289 1516q0 92 56 148t149 56q92 0 148 -56t56 -148t-56 -148.5t-148 -56.5q-93 0 -149 56t-56 149zM438 1516q0 -55 56 -56q55 0 55 56q0 55 -55 55q-56 0 -56 -55zM451 256 q0 -41 8 -54.5t33 -13.5t32.5 13.5t7.5 54.5v303h-40q-25 0 -33 -13.5t-8 -53.5v-236z" />
<glyph unicode="&#xe6;" horiz-adv-x="1474" d="M41 297v154q0 145 107.5 226t300.5 81h83v215q0 41 -8 54t-32 13q-25 0 -33 -13t-8 -54v-109q0 -16 -12.5 -28.5t-28.5 -12.5h-318q-16 0 -28.5 12.5t-12.5 28.5v68q0 143 106.5 225t291.5 82h86q188 0 294 -78q84 78 213 78h82q139 0 224.5 -85t85.5 -222v-404 q0 -12 -9.5 -21t-21.5 -9h-461v-242q0 -41 8 -54.5t33 -13.5t33 13.5t8 54.5v129q0 12 9 21.5t22 9.5h348q12 0 21.5 -9.5t9.5 -21.5v-88q0 -145 -107.5 -226t-300.5 -81h-86q-188 0 -295 78q-84 -78 -213 -78h-82q-139 0 -224 85t-85 222zM451 256q0 -41 8 -54.5t33 -13.5 t32.5 13.5t7.5 54.5v303h-40q-25 0 -33 -13.5t-8 -53.5v-236zM942 696h82v277q0 41 -8 54t-33 13t-33 -13t-8 -54v-277z" />
<glyph unicode="&#xe7;" horiz-adv-x="983" d="M41 297v635q0 145 107.5 226t300.5 81h86q193 0 300 -81t107 -226v-252q0 -12 -9 -21.5t-22 -9.5h-348q-12 0 -21.5 9.5t-9.5 21.5v293q0 41 -8 54t-32 13q-25 0 -33 -13t-8 -54v-717q0 -41 8 -54.5t33 -13.5t32.5 13.5t7.5 54.5v281q0 12 9.5 21t21.5 9h348 q12 0 21.5 -9t9.5 -21v-240q0 -143 -107.5 -225t-297.5 -82l-58 -66q16 2 49 2q98 0 152.5 -43t54.5 -123q0 -82 -50 -126t-140 -44q-31 0 -66 7l-182 26q-10 2 -18.5 11.5t-8.5 19.5v35q0 14 10.5 23t24.5 7l113 -10q39 -4 55 8.5t16 42.5q0 29 -12 41.5t-39 12.5l-20 -2 l-35 -5h-4q-8 0 -16.5 5.5t-12.5 13.5l-10 29q-2 8 2 16l49 121q-166 12 -258 92t-92 213z" />
<glyph unicode="&#xe8;" horiz-adv-x="983" d="M41 297v635q0 145 107.5 226t300.5 81h86q193 0 300 -81t107 -226v-404q0 -12 -9 -21t-22 -9h-460v-242q0 -41 8 -54.5t33 -13.5t32.5 13.5t7.5 54.5v129q0 12 9.5 21.5t21.5 9.5h348q12 0 21.5 -9.5t9.5 -21.5v-88q0 -145 -107.5 -226t-299.5 -81h-86q-193 0 -300.5 81 t-107.5 226zM174 1518q0 20 10 47l14 37q23 57 80 57q33 0 66 -19l436 -237q8 -4 11 -16.5t-1 -20.5l-8 -20q-2 -8 -14.5 -13.5t-24.5 -3.5l-502 103q-31 6 -49 29.5t-18 56.5zM451 696h81v277q0 41 -8 54t-32 13q-25 0 -33 -13t-8 -54v-277z" />
<glyph unicode="&#xe9;" horiz-adv-x="983" d="M41 297v635q0 145 107.5 226t300.5 81h86q193 0 300 -81t107 -226v-404q0 -12 -9 -21t-22 -9h-460v-242q0 -41 8 -54.5t33 -13.5t32.5 13.5t7.5 54.5v129q0 12 9.5 21.5t21.5 9.5h348q12 0 21.5 -9.5t9.5 -21.5v-88q0 -145 -107.5 -226t-299.5 -81h-86q-193 0 -300.5 81 t-107.5 226zM209 1378q0 18 12 25l436 237q33 18 66 19q57 0 80 -57l14 -37q10 -27 10 -47q0 -33 -18.5 -56.5t-48.5 -29.5l-502 -103h-6q-10 0 -20.5 4t-12.5 13l-8 20q-2 4 -2 12zM451 696h81v277q0 41 -8 54t-32 13q-25 0 -33 -13t-8 -54v-277z" />
<glyph unicode="&#xea;" horiz-adv-x="983" d="M41 297v635q0 145 107.5 226t300.5 81h86q193 0 300 -81t107 -226v-404q0 -12 -9 -21t-22 -9h-460v-242q0 -41 8 -54.5t33 -13.5t32.5 13.5t7.5 54.5v129q0 12 9.5 21.5t21.5 9.5h348q12 0 21.5 -9.5t9.5 -21.5v-88q0 -145 -107.5 -226t-299.5 -81h-86q-193 0 -300.5 81 t-107.5 226zM197 1440q0 16 10 24l203 191q27 27 69 26h23q43 0 69 -26l203 -191q10 -10 10 -22q0 -10 -10 -25l-94 -82q-8 -8 -19 -8q-12 0 -22 10l-148 146l-149 -146q-10 -10 -23 -10q-10 0 -18 8l-94 80q-10 8 -10 25zM451 696h81v277q0 41 -8 54t-32 13q-25 0 -33 -13 t-8 -54v-277z" />
<glyph unicode="&#xeb;" horiz-adv-x="983" d="M41 297v635q0 145 107.5 226t300.5 81h86q193 0 300 -81t107 -226v-404q0 -12 -9 -21t-22 -9h-460v-242q0 -41 8 -54.5t33 -13.5t32.5 13.5t7.5 54.5v129q0 12 9.5 21.5t21.5 9.5h348q12 0 21.5 -9.5t9.5 -21.5v-88q0 -145 -107.5 -226t-299.5 -81h-86q-193 0 -300.5 81 t-107.5 226zM164 1450q0 66 39 104.5t104 38.5q63 0 103.5 -38.5t40.5 -104.5q0 -63 -39 -102t-105 -39q-65 0 -104 38.5t-39 102.5zM451 696h81v277q0 41 -8 54t-32 13q-25 0 -33 -13t-8 -54v-277zM532 1450q0 66 39 104.5t105 38.5q63 0 103 -38.5t40 -104.5 q0 -63 -39 -102t-104 -39q-66 0 -105 38.5t-39 102.5z" />
<glyph unicode="&#xec;" horiz-adv-x="491" d="M-63 1518q0 20 10 47l14 37q23 57 80 57q33 0 66 -19l436 -237q8 -4 11 -16.5t-1 -20.5l-8 -20q-2 -8 -14.5 -13.5t-24.5 -3.5l-502 103q-31 6 -49 29.5t-18 56.5zM41 31v1167q0 12 9 21.5t22 9.5h348q12 0 21.5 -9.5t9.5 -21.5v-1167q0 -12 -9.5 -21.5t-21.5 -9.5h-348 q-12 0 -21.5 9t-9.5 22z" />
<glyph unicode="&#xed;" horiz-adv-x="491" d="M-59 1378q0 18 12 25l436 237q33 18 66 19q57 0 80 -57l14 -37q10 -27 10 -47q0 -33 -18.5 -56.5t-48.5 -29.5l-502 -103h-6q-10 0 -20.5 4t-12.5 13l-8 20q-2 4 -2 12zM41 31v1167q0 12 9 21.5t22 9.5h348q12 0 21.5 -9.5t9.5 -21.5v-1167q0 -12 -9.5 -21.5t-21.5 -9.5 h-348q-12 0 -21.5 9t-9.5 22z" />
<glyph unicode="&#xee;" horiz-adv-x="491" d="M-47 1440q0 16 10 24l203 191q27 27 69 26h23q43 0 69 -26l203 -191q10 -10 10 -22q0 -10 -10 -25l-94 -82q-8 -8 -19 -8q-12 0 -22 10l-148 146l-149 -146q-10 -10 -23 -10q-10 0 -18 8l-94 80q-10 8 -10 25zM41 31v1167q0 12 9 21.5t22 9.5h348q12 0 21.5 -9.5 t9.5 -21.5v-1167q0 -12 -9.5 -21.5t-21.5 -9.5h-348q-12 0 -21.5 9t-9.5 22z" />
<glyph unicode="&#xef;" horiz-adv-x="491" d="M-80 1450q0 66 39 104.5t104 38.5q63 0 103.5 -38.5t40.5 -104.5q0 -63 -39 -102t-105 -39q-65 0 -104 38.5t-39 102.5zM41 31v1167q0 12 9 21.5t22 9.5h348q12 0 21.5 -9.5t9.5 -21.5v-1167q0 -12 -9.5 -21.5t-21.5 -9.5h-348q-12 0 -21.5 9t-9.5 22zM288 1450 q0 66 39 104.5t105 38.5q63 0 103 -38.5t40 -104.5q0 -63 -39 -102t-104 -39q-66 0 -105 38.5t-39 102.5z" />
<glyph unicode="&#xf0;" horiz-adv-x="983" d="M41 297v635q0 137 85 222t224 85h82q57 0 100 -14v53q-8 -4 -16 -4q-18 0 -27 14l-26 49q-4 8 -4 15q0 16 14 26l57 33q-4 16 -13 22.5t-25 6.5h-11q-12 0 -21 9t-9 21v138q0 12 9 21t21 9h54q174 0 276 -65l53 31q8 4 17 4q18 0 26 -15l27 -49q4 -8 4 -14q0 -16 -14 -27 l-25 -14q43 -68 43 -158v-1034q0 -145 -107.5 -226t-299.5 -81h-86q-193 0 -300.5 81t-107.5 226zM451 256q0 -41 8 -54.5t33 -13.5t32.5 13.5t7.5 54.5v717q0 41 -8 54t-32 13q-25 0 -33 -13t-8 -54v-717z" />
<glyph unicode="&#xf1;" horiz-adv-x="983" d="M41 31v1157q0 16 12.5 28.5t28.5 12.5h135q31 0 45 -23l49 -71q41 49 102.5 76.5t137.5 27.5h82q139 0 224 -85t85 -222v-901q0 -12 -9 -21.5t-22 -9.5h-348q-12 0 -21.5 9t-9.5 22v942q0 41 -8 54t-32 13q-25 0 -33 -13t-8 -54v-942q0 -12 -9.5 -21.5t-21.5 -9.5h-348 q-12 0 -21.5 9t-9.5 22zM145 1370q18 121 73.5 186.5t137.5 65.5q49 0 85 -13.5t77 -37.5q37 -18 59.5 -27.5t49.5 -9.5q43 0 80.5 16.5t89.5 53.5q8 8 20 8q10 0 19 -8l10 -11q10 -10 8 -20q-18 -121 -73.5 -186.5t-137.5 -65.5q-49 0 -85 13.5t-77 37.5q-37 18 -59.5 27.5 t-48.5 9.5q-43 0 -81 -16.5t-89 -53.5q-8 -8 -21 -8q-10 0 -18 8l-10 11q-10 10 -9 20z" />
<glyph unicode="&#xf2;" horiz-adv-x="983" d="M41 297v635q0 145 107.5 226t300.5 81h86q192 0 299.5 -81t107.5 -226v-635q0 -145 -107.5 -226t-299.5 -81h-86q-193 0 -300.5 81t-107.5 226zM174 1518q0 20 10 47l14 37q23 57 80 57q33 0 66 -19l436 -237q8 -4 11 -16.5t-1 -20.5l-8 -20q-2 -8 -14.5 -13.5 t-24.5 -3.5l-502 103q-31 6 -49 29.5t-18 56.5zM451 256q0 -41 8 -54.5t33 -13.5t32.5 13.5t7.5 54.5v717q0 41 -8 54t-32 13q-25 0 -33 -13t-8 -54v-717z" />
<glyph unicode="&#xf3;" horiz-adv-x="983" d="M41 297v635q0 145 107.5 226t300.5 81h86q192 0 299.5 -81t107.5 -226v-635q0 -145 -107.5 -226t-299.5 -81h-86q-193 0 -300.5 81t-107.5 226zM209 1378q0 18 12 25l436 237q33 18 66 19q57 0 80 -57l14 -37q10 -27 10 -47q0 -33 -18.5 -56.5t-48.5 -29.5l-502 -103h-6 q-10 0 -20.5 4t-12.5 13l-8 20q-2 4 -2 12zM451 256q0 -41 8 -54.5t33 -13.5t32.5 13.5t7.5 54.5v717q0 41 -8 54t-32 13q-25 0 -33 -13t-8 -54v-717z" />
<glyph unicode="&#xf4;" horiz-adv-x="983" d="M41 297v635q0 145 107.5 226t300.5 81h86q192 0 299.5 -81t107.5 -226v-635q0 -145 -107.5 -226t-299.5 -81h-86q-193 0 -300.5 81t-107.5 226zM197 1440q0 16 10 24l203 191q27 27 69 26h23q43 0 69 -26l203 -191q10 -10 10 -22q0 -10 -10 -25l-94 -82q-8 -8 -19 -8 q-12 0 -22 10l-148 146l-149 -146q-10 -10 -23 -10q-10 0 -18 8l-94 80q-10 8 -10 25zM451 256q0 -41 8 -54.5t33 -13.5t32.5 13.5t7.5 54.5v717q0 41 -8 54t-32 13q-25 0 -33 -13t-8 -54v-717z" />
<glyph unicode="&#xf5;" horiz-adv-x="983" d="M41 297v635q0 145 107.5 226t300.5 81h86q192 0 299.5 -81t107.5 -226v-635q0 -145 -107.5 -226t-299.5 -81h-86q-193 0 -300.5 81t-107.5 226zM145 1370q18 121 73.5 186.5t137.5 65.5q49 0 85 -13.5t77 -37.5q37 -18 59.5 -27.5t49.5 -9.5q43 0 80.5 16.5t89.5 53.5 q8 8 20 8q10 0 19 -8l10 -11q10 -10 8 -20q-18 -121 -73.5 -186.5t-137.5 -65.5q-49 0 -85 13.5t-77 37.5q-37 18 -59.5 27.5t-48.5 9.5q-43 0 -81 -16.5t-89 -53.5q-8 -8 -21 -8q-10 0 -18 8l-10 11q-10 10 -9 20zM451 256q0 -41 8 -54.5t33 -13.5t32.5 13.5t7.5 54.5v717 q0 41 -8 54t-32 13q-25 0 -33 -13t-8 -54v-717z" />
<glyph unicode="&#xf6;" horiz-adv-x="983" d="M41 297v635q0 145 107.5 226t300.5 81h86q192 0 299.5 -81t107.5 -226v-635q0 -145 -107.5 -226t-299.5 -81h-86q-193 0 -300.5 81t-107.5 226zM164 1450q0 66 39 104.5t104 38.5q63 0 103.5 -38.5t40.5 -104.5q0 -63 -39 -102t-105 -39q-65 0 -104 38.5t-39 102.5z M451 256q0 -41 8 -54.5t33 -13.5t32.5 13.5t7.5 54.5v717q0 41 -8 54t-32 13q-25 0 -33 -13t-8 -54v-717zM532 1450q0 66 39 104.5t105 38.5q63 0 103 -38.5t40 -104.5q0 -63 -39 -102t-104 -39q-66 0 -105 38.5t-39 102.5z" />
<glyph unicode="&#xf7;" horiz-adv-x="1146" d="M41 492v245q0 12 9 21.5t22 9.5h1003q12 0 21.5 -9t9.5 -22v-245q0 -12 -9.5 -21.5t-21.5 -9.5h-1003q-12 0 -21.5 9t-9.5 22zM389 174q0 84 51.5 134t132.5 50q84 0 134.5 -50t50.5 -134q0 -82 -50.5 -132t-134.5 -50t-134 50t-50 132zM389 1055q0 84 51.5 134t132.5 50 q84 0 134.5 -50t50.5 -134q0 -82 -50.5 -132.5t-134.5 -50.5t-134 50.5t-50 132.5z" />
<glyph unicode="&#xf8;" horiz-adv-x="983" d="M41 297v635q0 145 107.5 226t300.5 81h86q86 0 172 -20l32 69q14 27 39 17l51 -23q25 -12 17 -43l-31 -68q127 -81 127 -239v-635q0 -145 -107.5 -226t-299.5 -81h-86q-96 0 -177 22l-28 -61q-16 -29 -43 -14l-47 22q-25 16 -17 41l29 59q-125 82 -125 238zM451 256 q0 -41 8 -54.5t33 -13.5t32.5 13.5t7.5 54.5v313l-81 -176v-137zM451 670l81 176v127q0 41 -8 54t-32 13q-25 0 -33 -13t-8 -54v-303z" />
<glyph unicode="&#xf9;" horiz-adv-x="983" d="M41 297v901q0 12 9 21.5t22 9.5h348q12 0 21.5 -9.5t9.5 -21.5v-942q0 -41 8 -54.5t33 -13.5t32.5 13.5t7.5 54.5v942q0 12 9.5 21.5t21.5 9.5h348q13 0 22 -9.5t9 -21.5v-1157q0 -16 -12 -28.5t-29 -12.5h-135q-31 0 -45 23l-49 71q-41 -49 -102.5 -76.5t-137.5 -27.5 h-82q-139 0 -224 85t-85 222zM174 1518q0 20 10 47l14 37q23 57 80 57q33 0 66 -19l436 -237q8 -4 11 -16.5t-1 -20.5l-8 -20q-2 -8 -14.5 -13.5t-24.5 -3.5l-502 103q-31 6 -49 29.5t-18 56.5z" />
<glyph unicode="&#xfa;" horiz-adv-x="983" d="M41 297v901q0 12 9 21.5t22 9.5h348q12 0 21.5 -9.5t9.5 -21.5v-942q0 -41 8 -54.5t33 -13.5t32.5 13.5t7.5 54.5v942q0 12 9.5 21.5t21.5 9.5h348q13 0 22 -9.5t9 -21.5v-1157q0 -16 -12 -28.5t-29 -12.5h-135q-31 0 -45 23l-49 71q-41 -49 -102.5 -76.5t-137.5 -27.5 h-82q-139 0 -224 85t-85 222zM209 1378q0 18 12 25l436 237q33 18 66 19q57 0 80 -57l14 -37q10 -27 10 -47q0 -33 -18.5 -56.5t-48.5 -29.5l-502 -103h-6q-10 0 -20.5 4t-12.5 13l-8 20q-2 4 -2 12z" />
<glyph unicode="&#xfb;" horiz-adv-x="983" d="M41 297v901q0 12 9 21.5t22 9.5h348q12 0 21.5 -9.5t9.5 -21.5v-942q0 -41 8 -54.5t33 -13.5t32.5 13.5t7.5 54.5v942q0 12 9.5 21.5t21.5 9.5h348q13 0 22 -9.5t9 -21.5v-1157q0 -16 -12 -28.5t-29 -12.5h-135q-31 0 -45 23l-49 71q-41 -49 -102.5 -76.5t-137.5 -27.5 h-82q-139 0 -224 85t-85 222zM197 1440q0 16 10 24l203 191q27 27 69 26h23q43 0 69 -26l203 -191q10 -10 10 -22q0 -10 -10 -25l-94 -82q-8 -8 -19 -8q-12 0 -22 10l-148 146l-149 -146q-10 -10 -23 -10q-10 0 -18 8l-94 80q-10 8 -10 25z" />
<glyph unicode="&#xfc;" horiz-adv-x="983" d="M41 297v901q0 12 9 21.5t22 9.5h348q12 0 21.5 -9.5t9.5 -21.5v-942q0 -41 8 -54.5t33 -13.5t32.5 13.5t7.5 54.5v942q0 12 9.5 21.5t21.5 9.5h348q13 0 22 -9.5t9 -21.5v-1157q0 -16 -12 -28.5t-29 -12.5h-135q-31 0 -45 23l-49 71q-41 -49 -102.5 -76.5t-137.5 -27.5 h-82q-139 0 -224 85t-85 222zM164 1450q0 66 39 104.5t104 38.5q63 0 103.5 -38.5t40.5 -104.5q0 -63 -39 -102t-105 -39q-65 0 -104 38.5t-39 102.5zM532 1450q0 66 39 104.5t105 38.5q63 0 103 -38.5t40 -104.5q0 -63 -39 -102t-104 -39q-66 0 -105 38.5t-39 102.5z" />
<glyph unicode="&#xfd;" horiz-adv-x="983" d="M41 307v891q0 12 9 21.5t22 9.5h348q12 0 21.5 -9.5t9.5 -21.5v-932q0 -41 8 -54t33 -13h40v999q0 12 9.5 21.5t21.5 9.5h348q13 0 22 -9.5t9 -21.5v-1300q0 -145 -107.5 -226.5t-299.5 -81.5h-95q-12 0 -21 9.5t-9 21.5v137q0 12 9 21.5t21 9.5h52q25 0 32.5 13.5 t7.5 54.5v143h-83q-193 0 -300.5 81t-107.5 226zM201 1378q0 18 12 25l436 237q33 18 66 19q57 0 80 -57l14 -37q10 -27 10 -47q0 -33 -18.5 -56.5t-48.5 -29.5l-502 -103h-6q-10 0 -20.5 4t-12.5 13l-8 20q-2 4 -2 12z" />
<glyph unicode="&#xfe;" horiz-adv-x="983" d="M41 -174v1577q0 12 9 21.5t22 9.5h348q12 0 21.5 -9.5t9.5 -21.5v-178q43 14 100 14h82q139 0 224 -85t85 -222v-635q0 -137 -85 -222t-224 -85h-82q-57 0 -100 14v-178q0 -12 -9.5 -21.5t-21.5 -9.5h-348q-12 0 -21.5 9.5t-9.5 21.5zM451 256q0 -41 8 -54.5t33 -13.5 t32.5 13.5t7.5 54.5v717q0 41 -8 54t-32 13q-25 0 -33 -13t-8 -54v-717z" />
<glyph unicode="&#xff;" horiz-adv-x="983" d="M41 307v891q0 12 9 21.5t22 9.5h348q12 0 21.5 -9.5t9.5 -21.5v-932q0 -41 8 -54t33 -13h40v999q0 12 9.5 21.5t21.5 9.5h348q13 0 22 -9.5t9 -21.5v-1300q0 -145 -107.5 -226.5t-299.5 -81.5h-95q-12 0 -21 9.5t-9 21.5v137q0 12 9 21.5t21 9.5h52q25 0 32.5 13.5 t7.5 54.5v143h-83q-193 0 -300.5 81t-107.5 226zM164 1450q0 66 39 104.5t104 38.5q63 0 103.5 -38.5t40.5 -104.5q0 -63 -39 -102t-105 -39q-65 0 -104 38.5t-39 102.5zM532 1450q0 66 39 104.5t105 38.5q63 0 103 -38.5t40 -104.5q0 -63 -39 -102t-104 -39 q-66 0 -105 38.5t-39 102.5z" />
<glyph unicode="&#x152;" horiz-adv-x="1495" d="M41 334v866q0 158 117.5 247t320.5 89h944q12 0 21.5 -9t9.5 -22v-245q0 -12 -9 -21.5t-22 -9.5h-419v-320h317q12 0 21.5 -9t9.5 -21v-217q0 -12 -9.5 -21.5t-21.5 -9.5h-317v-324h419q12 0 21.5 -9t9.5 -22v-245q0 -12 -9 -21.5t-22 -9.5h-944q-203 0 -319.5 89 t-118.5 245zM481 291q0 -43 9.5 -58.5t31.5 -15.5h41v1102h-41q-23 0 -32 -15.5t-9 -58.5v-954z" />
<glyph unicode="&#x153;" horiz-adv-x="1474" d="M41 297v635q0 145 107.5 226t300.5 81h86q188 0 294 -78q84 78 213 78h82q139 0 224.5 -85t85.5 -222v-404q0 -12 -9.5 -21t-21.5 -9h-461v-242q0 -41 8 -54.5t33 -13.5t33 13.5t8 54.5v129q0 12 9 21.5t22 9.5h348q12 0 21.5 -9.5t9.5 -21.5v-88q0 -145 -107.5 -226 t-300.5 -81h-86q-188 0 -295 78q-84 -78 -213 -78h-82q-139 0 -224 85t-85 222zM451 256q0 -41 8 -54.5t33 -13.5t32.5 13.5t7.5 54.5v717q0 41 -8 54t-32 13q-25 0 -33 -13t-8 -54v-717zM942 696h82v277q0 41 -8 54t-33 13t-33 -13t-8 -54v-277z" />
<glyph unicode="&#x178;" d="M41 774v731q0 12 9 21.5t22 9.5h379q12 0 21 -9t9 -22v-776q0 -43 9.5 -58.5t31.5 -15.5q23 0 32 15.5t9 58.5v776q0 12 9.5 21.5t21.5 9.5h379q12 0 21.5 -9t9.5 -22v-731q0 -119 -69 -199.5t-194 -115.5v-428q0 -12 -9 -21.5t-21 -9.5h-377q-12 0 -21.5 9t-9.5 22v428 q-125 35 -193.5 115.5t-68.5 199.5zM195 1747q0 66 39 104.5t104 38.5q63 0 103.5 -38.5t40.5 -104.5q0 -63 -39 -102t-105 -39q-65 0 -104 38.5t-39 102.5zM563 1747q0 66 39 104.5t105 38.5q63 0 103 -38.5t40 -104.5q0 -63 -39 -102t-104 -39q-66 0 -105 38.5t-39 102.5z " />
<glyph unicode="&#x2c6;" horiz-adv-x="1228" d="M197 1440q0 16 10 24l203 191q27 27 69 26h23q43 0 69 -26l203 -191q10 -10 10 -22q0 -10 -10 -25l-94 -82q-8 -8 -19 -8q-12 0 -22 10l-148 146l-149 -146q-10 -10 -23 -10q-10 0 -18 8l-94 80q-10 8 -10 25z" />
<glyph unicode="&#x2dc;" horiz-adv-x="1228" d="M145 1370q18 121 73.5 186.5t137.5 65.5q49 0 85 -13.5t77 -37.5q37 -18 59.5 -27.5t49.5 -9.5q43 0 80.5 16.5t89.5 53.5q8 8 20 8q10 0 19 -8l10 -11q10 -10 8 -20q-18 -121 -73.5 -186.5t-137.5 -65.5q-49 0 -85 13.5t-77 37.5q-37 18 -59.5 27.5t-48.5 9.5 q-43 0 -81 -16.5t-89 -53.5q-8 -8 -21 -8q-10 0 -18 8l-10 11q-10 10 -9 20z" />
<glyph unicode="&#x2000;" horiz-adv-x="1008" />
<glyph unicode="&#x2001;" horiz-adv-x="2017" />
<glyph unicode="&#x2002;" horiz-adv-x="1008" />
<glyph unicode="&#x2003;" horiz-adv-x="2017" />
<glyph unicode="&#x2004;" horiz-adv-x="672" />
<glyph unicode="&#x2005;" horiz-adv-x="504" />
<glyph unicode="&#x2006;" horiz-adv-x="336" />
<glyph unicode="&#x2007;" horiz-adv-x="336" />
<glyph unicode="&#x2008;" horiz-adv-x="252" />
<glyph unicode="&#x2009;" horiz-adv-x="403" />
<glyph unicode="&#x200a;" horiz-adv-x="112" />
<glyph unicode="&#x2010;" horiz-adv-x="655" d="M41 580v266q0 12 9 21.5t22 9.5h512q12 0 21 -9.5t9 -21.5v-266q0 -12 -9 -21.5t-21 -9.5h-512q-12 0 -21.5 9t-9.5 22z" />
<glyph unicode="&#x2011;" horiz-adv-x="655" d="M41 580v266q0 12 9 21.5t22 9.5h512q12 0 21 -9.5t9 -21.5v-266q0 -12 -9 -21.5t-21 -9.5h-512q-12 0 -21.5 9t-9.5 22z" />
<glyph unicode="&#x2012;" horiz-adv-x="655" d="M41 580v266q0 12 9 21.5t22 9.5h512q12 0 21 -9.5t9 -21.5v-266q0 -12 -9 -21.5t-21 -9.5h-512q-12 0 -21.5 9t-9.5 22z" />
<glyph unicode="&#x2013;" horiz-adv-x="1003" d="M41 580v266q0 12 9 21.5t22 9.5h860q12 0 21.5 -9.5t9.5 -21.5v-266q0 -12 -9.5 -21.5t-21.5 -9.5h-860q-12 0 -21.5 9t-9.5 22z" />
<glyph unicode="&#x2014;" horiz-adv-x="1413" d="M41 580v266q0 12 9 21.5t22 9.5h1269q13 0 22 -9.5t9 -21.5v-266q0 -12 -9 -21.5t-22 -9.5h-1269q-12 0 -21.5 9t-9.5 22z" />
<glyph unicode="&#x2018;" horiz-adv-x="491" d="M41 1128q0 217 69.5 322.5t231.5 105.5h16q16 0 28.5 -12t12.5 -28v-86q0 -16 -12 -28.5t-29 -12.5h-16q-61 0 -89 -35t-28 -123h21q96 0 150.5 -54.5t54.5 -150.5t-54.5 -150.5t-150.5 -54.5q-103 0 -154 71t-51 236z" />
<glyph unicode="&#x2019;" horiz-adv-x="1228" d="M41 1434q0 96 54.5 150.5t150.5 54.5q102 0 153.5 -71t51.5 -237q0 -217 -70 -322.5t-231 -105.5h-17q-16 0 -28.5 12.5t-12.5 28.5v86q0 16 12.5 28.5t28.5 12.5h17q61 0 88.5 35t27.5 123h-20q-96 0 -150.5 54.5t-54.5 150.5z" />
<glyph unicode="&#x201c;" horiz-adv-x="942" d="M41 1128q0 217 69.5 322.5t231.5 105.5h16q16 0 28.5 -12t12.5 -28v-86q0 -16 -12 -28.5t-29 -12.5h-16q-61 0 -89 -35t-28 -123h21q96 0 150.5 -54.5t54.5 -150.5t-54.5 -150.5t-150.5 -54.5q-103 0 -154 71t-51 236zM492 1128q0 217 69.5 322.5t231.5 105.5h16 q16 0 28.5 -12t12.5 -28v-86q0 -16 -12.5 -28.5t-28.5 -12.5h-16q-61 0 -89 -35t-28 -123h20q96 0 150.5 -54.5t54.5 -150.5t-54 -150.5t-151 -54.5q-102 0 -153 71t-51 236z" />
<glyph unicode="&#x201d;" horiz-adv-x="942" d="M41 1434q0 96 54.5 150t150.5 54q102 0 153.5 -70.5t51.5 -236.5q0 -217 -70 -322.5t-231 -105.5h-17q-16 0 -28.5 12.5t-12.5 28.5v86q0 16 12.5 28.5t28.5 12.5h17q61 0 88.5 35t27.5 123h-20q-96 0 -150.5 54t-54.5 151zM492 1434q0 96 54 150t150 54q103 0 154 -70.5 t51 -236.5q0 -217 -69.5 -322.5t-231.5 -105.5h-16q-16 0 -28.5 12.5t-12.5 28.5v86q0 16 12 28.5t29 12.5h16q61 0 89 35t28 123h-21q-96 0 -150 54t-54 151z" />
<glyph unicode="&#x2022;" horiz-adv-x="573" d="M41 616q0 111 67.5 178.5t178.5 67.5t178 -67.5t67 -178.5t-67.5 -178t-177.5 -67q-111 0 -178.5 67.5t-67.5 177.5z" />
<glyph unicode="&#x2026;" horiz-adv-x="491" d="M41 195q0 92 56.5 148t148.5 56t148.5 -56t56.5 -148t-56.5 -148.5t-148.5 -56.5t-148.5 56t-56.5 149z" />
<glyph unicode="&#x202f;" horiz-adv-x="403" />
<glyph unicode="&#x2039;" horiz-adv-x="763" d="M41 614l227 375q21 35 54 35h364q20 0 31.5 -14.5t1.5 -30.5l-219 -365l215 -360q6 -8 6 -18q0 -14 -11.5 -22.5t-27.5 -8.5h-360q-33 0 -54 35z" />
<glyph unicode="&#x203a;" horiz-adv-x="763" d="M41 993q0 12 11 21.5t26 9.5h364q33 0 54 -35l227 -375l-227 -374q-20 -35 -54 -35h-360q-16 0 -27.5 8t-11.5 23q0 10 6 18l215 360l-219 365q-4 4 -4 14z" />
<glyph unicode="&#x205f;" horiz-adv-x="504" />
<glyph unicode="&#x20ac;" d="M0 553v143q0 12 9 21.5t22 9.5h10v82h-10q-12 0 -21.5 9t-9.5 22v143q0 12 9 21.5t22 9.5h10v196q0 158 117.5 247t320.5 89h86q203 0 321 -89t118 -247v-84q0 -12 -9.5 -21t-21.5 -9h-379q-12 0 -21.5 9t-9.5 21v129q0 43 -9 58.5t-32 15.5t-32 -15.5t-9 -58.5v-241h441 q12 0 21 -9.5t9 -21.5v-143q0 -12 -9 -21.5t-21 -9.5h-441v-82h441q12 0 21 -9t9 -22v-143q0 -12 -9 -21.5t-21 -9.5h-441v-241q0 -43 9.5 -58.5t31.5 -15.5q23 0 32 15.5t9 58.5v129q0 12 9.5 21t21.5 9h379q12 0 21.5 -9t9.5 -21v-84q0 -158 -118 -247t-321 -89h-86 q-203 0 -320.5 89t-117.5 247v196h-10q-12 0 -21.5 9.5t-9.5 21.5z" />
<glyph unicode="&#x25fc;" horiz-adv-x="1228" d="M0 0v1229h1229v-1229h-1229z" />
</font>
</defs>
</svg>
